<svg width="311" height="52" viewBox="0 0 311 52" fill="none" xmlns="http://www.w3.org/2000/svg">
<rect x="0.5" y="0.5" width="310" height="51" rx="7.5" fill="#EEEBF6" stroke="#5639A6"/>
<g clip-path="url(#clip0_177_1336)">
<path d="M23 11.875C19.6172 11.875 16.875 14.6172 16.875 18C16.875 21.3827 19.6172 24.125 23 24.125C26.3827 24.125 29.125 21.3827 29.125 18C29.125 14.6172 26.3827 11.875 23 11.875ZM23 16.6875C23.116 16.6875 23.2273 16.7336 23.3094 16.8156C23.3914 16.8977 23.4375 17.009 23.4375 17.125V21.0625C23.4375 21.1785 23.3914 21.2898 23.3094 21.3719C23.2273 21.4539 23.116 21.5 23 21.5C22.884 21.5 22.7727 21.4539 22.6906 21.3719C22.6086 21.2898 22.5625 21.1785 22.5625 21.0625V17.125C22.5625 17.009 22.6086 16.8977 22.6906 16.8156C22.7727 16.7336 22.884 16.6875 23 16.6875ZM23 15.8125C22.826 15.8125 22.659 15.7434 22.536 15.6203C22.4129 15.4972 22.3438 15.3303 22.3438 15.1562C22.3438 14.9822 22.4129 14.8153 22.536 14.6922C22.659 14.5691 22.826 14.5 23 14.5C23.174 14.5 23.341 14.5691 23.464 14.6922C23.5871 14.8153 23.6562 14.9822 23.6562 15.1562C23.6562 15.3303 23.5871 15.4972 23.464 15.6203C23.341 15.7434 23.174 15.8125 23 15.8125Z" fill="#5639A6"/>
</g>
<path d="M36.7422 12.8945V14.1367H41.6055V12.8945H42.7188V17.1367H39.7188V18.168H43.9609V19.082H34.3867V18.168H38.6172V17.1367H35.6406V12.8945H36.7422ZM35.5938 22.7734V19.832H36.7188V21.8711H42.8828V22.7734H35.5938ZM36.7422 16.2344H41.6055V15.0039H36.7422V16.2344ZM51.4727 15.168C51.4727 17.0898 52.5508 19.0059 54.1562 19.7266L53.4766 20.6172C52.2871 20.0195 51.3848 18.8359 50.9219 17.4004C50.459 18.9121 49.5449 20.1895 48.332 20.8164L47.6289 19.9141C49.2578 19.1348 50.3418 17.1133 50.3477 15.168V13.375H51.4727V15.168ZM52.9961 16.8906V15.9883H55.3398V12.4961H56.4414V23.0195H55.3398V16.8906H52.9961ZM66.7539 12.4961V23.0195H65.6406V12.4961H66.7539ZM58.6445 20.5V13.375H59.7578V16.0703H62.582V13.375H63.6836V20.5H58.6445ZM59.7578 19.5859H62.582V16.9492H59.7578V19.5859ZM73.7617 13.9844C73.7617 15.6953 75.584 17.3125 77.6055 17.6758L77.0898 18.6016C75.4082 18.2383 73.8672 17.1367 73.1875 15.6602C72.4961 17.1309 70.9551 18.2266 69.2734 18.6016L68.7812 17.6758C70.7734 17.3008 72.584 15.6953 72.5898 13.9844V13.1875H73.7617V13.9844ZM68.4297 21.6133V20.6875H78.0391V21.6133H68.4297ZM87.2969 15.5664V16.457H80.0664V12.8711H81.168V15.5664H87.2969ZM78.7891 18.6719V17.7812H88.3984V18.6719H78.7891ZM79.9844 22.75V19.668H81.0977V21.8359H87.3672V22.75H79.9844ZM92.2773 20.3477V19.3047L96.0273 13.5156H97.6211V19.2578H98.7812V20.3477H97.6211V22H96.4023V20.3477H92.2773ZM93.6367 19.2578H96.4023V15.0508H96.3086L93.6367 19.1875V19.2578ZM103.035 22.1172C101.072 22.1172 99.918 20.5352 99.918 17.7578C99.918 14.998 101.084 13.3984 103.035 13.3984C104.98 13.3984 106.146 14.998 106.152 17.7578C106.146 20.5352 104.998 22.1172 103.035 22.1172ZM101.207 17.7578C101.201 19.873 101.887 21.0039 103.035 21.0039C104.178 21.0039 104.863 19.873 104.863 17.7578C104.863 15.6484 104.172 14.4941 103.035 14.4883C101.893 14.4941 101.207 15.6484 101.207 17.7578ZM111.25 17.875V18.9531H107.488V17.875H111.25ZM115.633 22.1172C114.027 22.1172 112.82 21.1387 112.762 19.7852H114.016C114.086 20.5059 114.777 21.0332 115.633 21.0391C116.664 21.0332 117.402 20.2891 117.402 19.2812C117.402 18.25 116.641 17.5 115.574 17.4883C114.895 17.4883 114.373 17.7168 114.086 18.2383H112.867L113.418 13.5156H118.223V14.6172H114.484L114.203 16.9961H114.285C114.637 16.6562 115.234 16.4277 115.879 16.4219C117.479 16.4277 118.656 17.6113 118.656 19.2461C118.656 20.916 117.402 22.1172 115.633 22.1172ZM122.98 22.1172C121.018 22.1172 119.863 20.5352 119.863 17.7578C119.863 14.998 121.029 13.3984 122.98 13.3984C124.926 13.3984 126.092 14.998 126.098 17.7578C126.092 20.5352 124.943 22.1172 122.98 22.1172ZM121.152 17.7578C121.146 19.873 121.832 21.0039 122.98 21.0039C124.123 21.0039 124.809 19.873 124.809 17.7578C124.809 15.6484 124.117 14.4941 122.98 14.4883C121.838 14.4941 121.152 15.6484 121.152 17.7578ZM136.082 12.4961V22.9961H135.016V17.5703H133.656V22.457H132.637V12.707H133.656V16.6562H135.016V12.4961H136.082ZM127.422 20.4766V13.7617H131.359V14.6641H128.535V19.5273C129.824 19.5215 130.797 19.4629 131.922 19.2461L132.004 20.1602C130.744 20.4238 129.654 20.4648 128.125 20.4766H127.422ZM142.762 13.4219V18.3203H137.852V13.4219H142.762ZM138.941 17.4414H141.672V14.3242H138.941V17.4414ZM139.035 22.7734V19.4453H140.148V21.8711H146.137V22.7734H139.035ZM144.578 20.1836V12.4844H145.691V15.625H147.215V16.5625H145.691V20.1836H144.578ZM159.438 12.4961V23.0195H158.324V12.4961H159.438ZM151.105 16.9609C151.105 14.7168 152.236 13.2871 153.824 13.2812C155.383 13.2871 156.531 14.7168 156.531 16.9609C156.531 19.2285 155.383 20.6582 153.824 20.6523C152.236 20.6582 151.105 19.2285 151.105 16.9609ZM152.184 16.9609C152.178 18.6309 152.846 19.6562 153.824 19.6562C154.785 19.6562 155.453 18.6309 155.453 16.9609C155.453 15.3145 154.785 14.2832 153.824 14.2773C152.846 14.2832 152.178 15.3145 152.184 16.9609ZM170.688 17.6172V18.5195H161.113V17.6172H163.41V16.2051C162.596 15.877 162.139 15.3496 162.145 14.6523C162.139 13.4043 163.586 12.6777 165.895 12.6836C168.197 12.6777 169.639 13.4043 169.645 14.6523C169.639 15.3496 169.182 15.877 168.367 16.2109V17.6172H170.688ZM162.25 21.0977C162.25 19.8965 163.609 19.2344 165.895 19.2344C168.15 19.2344 169.51 19.8965 169.516 21.0977C169.51 22.3105 168.15 22.9727 165.895 22.9727C163.609 22.9727 162.25 22.3105 162.25 21.0977ZM163.293 14.6523C163.287 15.3555 164.26 15.748 165.895 15.7539C167.518 15.748 168.502 15.3555 168.496 14.6523C168.502 13.9492 167.518 13.5449 165.895 13.5391C164.26 13.5449 163.287 13.9492 163.293 14.6523ZM163.375 21.0977C163.369 21.7539 164.289 22.1289 165.895 22.1172C167.477 22.1289 168.402 21.7539 168.402 21.0977C168.402 20.4531 167.477 20.0898 165.895 20.0898C164.289 20.0898 163.369 20.4531 163.375 21.0977ZM164.535 17.6172H167.266V16.498C166.855 16.5625 166.393 16.5977 165.895 16.5977C165.402 16.5977 164.945 16.5625 164.535 16.5039V17.6172ZM182.594 12.4961V16.6797H184.223V17.6055H182.594V22.9844H181.48V12.4961H182.594ZM174.426 20.1836C177.057 18.8711 178.486 16.9727 178.715 14.5234H174.953V13.5977H179.852C179.84 16.6328 178.504 19.3457 175.047 21.0508L174.426 20.1836ZM193.27 15.332V16.2344H186.062V12.6836H187.164V15.332H193.27ZM184.785 18.2617V17.3477H194.371V18.2617H184.785ZM185.922 21.0273C185.922 19.8027 187.287 19.1113 189.566 19.1172C191.828 19.1113 193.182 19.8027 193.188 21.0273C193.182 22.2578 191.828 22.9492 189.566 22.9492C187.287 22.9492 185.922 22.2578 185.922 21.0273ZM187.047 21.0273C187.041 21.7012 187.961 22.0879 189.566 22.0938C191.148 22.0879 192.074 21.7012 192.074 21.0273C192.074 20.3477 191.148 19.9902 189.566 19.9844C187.961 19.9902 187.041 20.3477 187.047 21.0273ZM203.406 12.5078V15.8828H204.93V16.8086H203.406V20.3594H202.293V12.5078H203.406ZM195.168 14.6289V13.7266H197.746V12.4961H198.859V13.7266H201.426V14.6289H195.168ZM195.742 17.1133C195.736 15.9121 196.773 15.127 198.297 15.1328C199.803 15.127 200.84 15.9121 200.84 17.1133C200.84 18.3027 199.803 19.0762 198.297 19.082C196.773 19.0762 195.736 18.3027 195.742 17.1133ZM196.75 22.7734V19.7383H197.863V21.8711H203.852V22.7734H196.75ZM196.82 17.1133C196.809 17.7988 197.406 18.2207 198.297 18.2148C199.188 18.2207 199.785 17.7988 199.797 17.1133C199.785 16.4219 199.188 15.9941 198.297 15.9883C197.406 15.9941 196.809 16.4219 196.82 17.1133ZM212.242 15.168C212.242 17.0898 213.32 19.0059 214.926 19.7266L214.246 20.6172C213.057 20.0195 212.154 18.8359 211.691 17.4004C211.229 18.9121 210.314 20.1895 209.102 20.8164L208.398 19.9141C210.027 19.1348 211.111 17.1133 211.117 15.168V13.375H212.242V15.168ZM213.766 16.8906V15.9883H216.109V12.4961H217.211V23.0195H216.109V16.8906H213.766ZM227.523 12.4961V23.0195H226.41V12.4961H227.523ZM219.414 20.5V13.375H220.527V16.0703H223.352V13.375H224.453V20.5H219.414ZM220.527 19.5859H223.352V16.9492H220.527V19.5859ZM234.531 13.9844C234.531 15.6953 236.354 17.3125 238.375 17.6758L237.859 18.6016C236.178 18.2383 234.637 17.1367 233.957 15.6602C233.266 17.1309 231.725 18.2266 230.043 18.6016L229.551 17.6758C231.543 17.3008 233.354 15.6953 233.359 13.9844V13.1875H234.531V13.9844ZM229.199 21.6133V20.6875H238.809V21.6133H229.199ZM251.207 12.4961V18.1328H250.094V12.4961H251.207ZM242.711 15.4141C242.717 13.9727 243.9 12.9707 245.512 12.9766C247.117 12.9707 248.301 13.9727 248.301 15.4141C248.301 16.8496 247.117 17.8516 245.512 17.8398C243.9 17.8516 242.717 16.8496 242.711 15.4141ZM243.801 15.4141C243.795 16.3223 244.516 16.9258 245.512 16.9258C246.496 16.9258 247.211 16.3223 247.211 15.4141C247.211 14.5176 246.496 13.9082 245.512 13.9141C244.516 13.9082 243.795 14.5176 243.801 15.4141ZM244.34 22.8672V18.6367H245.43V19.8203H250.105V18.6367H251.207V22.8672H244.34ZM245.43 21.9531H250.105V20.6992H245.43V21.9531ZM261.59 12.4961V22.9961H260.477V12.4961H261.59ZM253.516 20.3242V13.5156H254.617V19.3633C256.152 19.3574 257.764 19.2227 259.445 18.8828L259.598 19.8203C257.74 20.2012 256.053 20.3301 254.395 20.3242H253.516ZM271.422 12.4961V16.5625H273.109V17.4766H271.422V23.0195H270.309V12.4961H271.422ZM263.688 20.4062V13.5039H268.598V14.4062H264.801V19.4805C266.564 19.4746 267.883 19.3984 269.383 19.1289L269.523 20.0664C267.877 20.3594 266.482 20.4121 264.531 20.4062H263.688ZM274.809 22.082C274.352 22.0762 273.971 21.707 273.977 21.25C273.971 20.793 274.352 20.418 274.809 20.418C275.26 20.418 275.635 20.793 275.641 21.25C275.635 21.707 275.26 22.0762 274.809 22.082ZM34.5625 36.3477V35.3047L38.3125 29.5156H39.9062V35.2578H41.0664V36.3477H39.9062V38H38.6875V36.3477H34.5625ZM35.9219 35.2578H38.6875V31.0508H38.5938L35.9219 35.1875V35.2578ZM45.3203 38.1172C43.3574 38.1172 42.2031 36.5352 42.2031 33.7578C42.2031 30.998 43.3691 29.3984 45.3203 29.3984C47.2656 29.3984 48.4316 30.998 48.4375 33.7578C48.4316 36.5352 47.2832 38.1172 45.3203 38.1172ZM43.4922 33.7578C43.4863 35.873 44.1719 37.0039 45.3203 37.0039C46.4629 37.0039 47.1484 35.873 47.1484 33.7578C47.1484 31.6484 46.457 30.4941 45.3203 30.4883C44.1777 30.4941 43.4922 31.6484 43.4922 33.7578ZM53.5352 33.875V34.9531H49.7734V33.875H53.5352ZM57.918 38.1172C56.3125 38.1172 55.1055 37.1387 55.0469 35.7852H56.3008C56.3711 36.5059 57.0625 37.0332 57.918 37.0391C58.9492 37.0332 59.6875 36.2891 59.6875 35.2812C59.6875 34.25 58.9258 33.5 57.8594 33.4883C57.1797 33.4883 56.6582 33.7168 56.3711 34.2383H55.1523L55.7031 29.5156H60.5078V30.6172H56.7695L56.4883 32.9961H56.5703C56.9219 32.6562 57.5195 32.4277 58.1641 32.4219C59.7637 32.4277 60.9414 33.6113 60.9414 35.2461C60.9414 36.916 59.6875 38.1172 57.918 38.1172ZM65.2656 38.1172C63.3027 38.1172 62.1484 36.5352 62.1484 33.7578C62.1484 30.998 63.3145 29.3984 65.2656 29.3984C67.2109 29.3984 68.377 30.998 68.3828 33.7578C68.377 36.5352 67.2285 38.1172 65.2656 38.1172ZM63.4375 33.7578C63.4316 35.873 64.1172 37.0039 65.2656 37.0039C66.4082 37.0039 67.0938 35.873 67.0938 33.7578C67.0938 31.6484 66.4023 30.4941 65.2656 30.4883C64.123 30.4941 63.4375 31.6484 63.4375 33.7578ZM78.3672 28.4961V38.9961H77.3008V33.5703H75.9414V38.457H74.9219V28.707H75.9414V32.6562H77.3008V28.4961H78.3672ZM69.707 36.4766V29.7617H73.6445V30.6641H70.8203V35.5273C72.1094 35.5215 73.082 35.4629 74.207 35.2461L74.2891 36.1602C73.0293 36.4238 71.9395 36.4648 70.4102 36.4766H69.707ZM87.9062 28.4961V32.6797H89.5352V33.6055H87.9062V38.9844H86.793V28.4961H87.9062ZM79.7383 36.1836C82.3691 34.8711 83.7988 32.9727 84.0273 30.5234H80.2656V29.5977H85.1641C85.1523 32.6328 83.8164 35.3457 80.3594 37.0508L79.7383 36.1836ZM98.3477 29.1992V33.7227H93.4375V29.1992H98.3477ZM94.0469 38.0938C95.8457 37.8359 97.1875 36.9512 97.3574 35.9258H94.4688V35.0352H101.441V35.9258H98.5645C98.7227 36.9277 100.088 37.8359 101.875 38.1055L101.465 38.9609C99.8711 38.7148 98.5586 37.9824 97.9492 36.9863C97.3516 37.9883 96.0508 38.709 94.457 38.9492L94.0469 38.0938ZM94.5273 32.832H97.2578V30.0898H94.5273V32.832ZM100.164 34.4492V28.4961H101.277V30.9336H102.801V31.8594H101.277V34.4492H100.164ZM108.18 29.1289C110.383 29.1289 112.059 30.2949 112.059 32.0586C112.059 33.834 110.383 34.9941 108.18 34.9883C105.982 34.9941 104.307 33.834 104.312 32.0586C104.307 30.2949 105.982 29.1289 108.18 29.1289ZM103.398 37.6367V36.7109H113.008V37.6367H103.398ZM105.379 32.0586C105.373 33.2832 106.568 34.0742 108.18 34.0742C109.785 34.0742 110.975 33.2832 110.98 32.0586C110.975 30.8398 109.785 30.0254 108.18 30.0312C106.568 30.0254 105.373 30.8398 105.379 32.0586ZM122.477 28.5078V36.1953H121.363V28.5078H122.477ZM113.828 33.8281C115.475 33.2188 116.447 31.707 116.453 30.125V29.082H117.59V30.125C117.584 31.6602 118.557 33.0664 120.18 33.6289L119.605 34.5195C118.393 34.0684 117.496 33.1777 117.027 32.041C116.564 33.2598 115.656 34.2324 114.426 34.707L113.828 33.8281ZM115.609 38.7734V35.4688H116.734V37.8711H122.793V38.7734H115.609ZM132.32 28.4961V32.6797H133.949V33.6055H132.32V38.9844H131.207V28.4961H132.32ZM124.152 36.1836C126.783 34.8711 128.213 32.9727 128.441 30.5234H124.68V29.5977H129.578C129.566 32.6328 128.23 35.3457 124.773 37.0508L124.152 36.1836ZM144.121 36.7578V37.6836H134.512V36.7578H136.809V34.0156C135.947 33.541 135.42 32.791 135.426 31.8477C135.42 30.1953 137.043 29.1113 139.293 29.1055C141.549 29.1113 143.172 30.1953 143.172 31.8477C143.172 32.7734 142.668 33.5176 141.824 33.9922V36.7578H144.121ZM136.504 31.8477C136.504 32.9727 137.646 33.7051 139.293 33.7109C140.928 33.7051 142.088 32.9727 142.094 31.8477C142.088 30.7168 140.928 29.9961 139.293 29.9961C137.646 29.9961 136.504 30.7168 136.504 31.8477ZM137.91 36.7578H140.699V34.4258C140.271 34.5254 139.797 34.5781 139.293 34.5781C138.801 34.5781 138.332 34.5254 137.91 34.4258V36.7578ZM146.605 35.4805C146.623 33.9453 147.074 33.4766 147.848 32.9961C148.34 32.6973 148.715 32.2637 148.715 31.6484C148.715 30.916 148.152 30.4531 147.449 30.4531C146.816 30.4531 146.201 30.8398 146.148 31.707H144.883C144.93 30.2129 146.055 29.3984 147.449 29.3984C148.973 29.3984 149.992 30.3125 149.992 31.6484C149.992 32.5918 149.541 33.2188 148.797 33.6758C148.094 34.1035 147.818 34.5254 147.801 35.4805V35.5508H146.605V35.4805ZM146.418 37.25C146.412 36.793 146.793 36.418 147.25 36.418C147.701 36.418 148.076 36.793 148.082 37.25C148.076 37.707 147.701 38.0762 147.25 38.082C146.793 38.0762 146.412 37.707 146.418 37.25Z" fill="#5639A6"/>
<defs>
<clipPath id="clip0_177_1336">
<rect width="14" height="14" fill="white" transform="translate(16 11)"/>
</clipPath>
</defs>
</svg>
