<svg width="16" height="16" viewBox="0 0 16 16" fill="none" xmlns="http://www.w3.org/2000/svg">
<g id="basil:comment-outline">
<path id="Vector" fill-rule="evenodd" clip-rule="evenodd" d="M2.93044 9.95419C1.43178 6.39484 4.13778 2.5 8.10911 2.5H8.32311C9.02945 2.5 9.72887 2.63464 10.3814 2.89622C11.034 3.1578 11.6269 3.54121 12.1264 4.02456C12.6259 4.5079 13.022 5.08171 13.2923 5.71323C13.5627 6.34475 13.7018 7.02161 13.7018 7.70516C13.7018 9.24205 13.0709 10.716 11.9479 11.8027C10.825 12.8895 9.30189 13.5 7.71378 13.5H2.50044C2.39686 13.5001 2.2958 13.469 2.21123 13.4111C2.12667 13.3533 2.06277 13.2714 2.02837 13.1768C1.99398 13.0823 1.99077 12.9797 2.01921 12.8833C2.04764 12.7869 2.10631 12.7014 2.18711 12.6387L3.50111 11.6174C3.5292 11.5956 3.54926 11.5656 3.55827 11.5319C3.56728 11.4982 3.56477 11.4626 3.55111 11.4303L2.93044 9.95419ZM8.10911 3.46774C4.84711 3.46774 2.62511 6.66581 3.85578 9.58903L4.47711 11.0658C4.57178 11.2909 4.58885 11.5396 4.52579 11.7749C4.46274 12.0101 4.32291 12.2194 4.12711 12.3716L3.92111 12.5323H7.71378C9.03668 12.5323 10.3054 12.0237 11.2408 11.1184C12.1763 10.2132 12.7018 8.98539 12.7018 7.70516C12.7018 6.58133 12.2405 5.50352 11.4193 4.70885C10.5981 3.91418 9.4844 3.46774 8.32311 3.46774H8.10911Z" fill="#ABABAB"/>
</g>
</svg>
