<svg width="327" height="48" viewBox="0 0 327 48" fill="none" xmlns="http://www.w3.org/2000/svg">
<rect width="327" height="48" rx="8" fill="#5639A6"/>
<path d="M111.656 17.2656V31.3906H109.984V17.2656H111.656ZM99.6094 23.375C99.6094 20.2656 100.812 18.3359 102.656 18.3438C104.367 18.3359 105.531 19.9375 105.734 22.5781H107.094V17.5156H108.75V30.7031H107.094V23.9844H105.75C105.586 26.7422 104.406 28.4297 102.656 28.4219C100.812 28.4297 99.6094 26.4922 99.6094 23.375ZM101.219 23.375C101.211 25.5859 101.758 26.7734 102.656 26.7656C103.594 26.7734 104.148 25.5859 104.156 23.375C104.148 21.1719 103.594 19.9766 102.656 19.9844C101.758 19.9766 101.211 21.1719 101.219 23.375ZM126.203 28.1875V29.625H113.297V28.1875H126.203ZM114.719 25.6719V18.2188H116.453V20.6406H123V18.2188H124.734V25.6719H114.719ZM116.453 24.3125H123V22H116.453V24.3125ZM138.891 17.2656V31.4062H137.172V17.2656H138.891ZM127.891 19.9062V18.5H134.547V23.7969H129.688V26.6406C131.914 26.625 133.828 26.5078 136.031 26.1406L136.188 27.5625C133.789 27.9766 131.68 28.0703 129.141 28.0625H127.906V22.4219H132.781V19.9062H127.891ZM147.672 18.6094V20.0156H146.656V24.0547C147.078 24.0234 147.492 23.9766 147.875 23.9219L147.953 25.2188C145.742 25.6328 142.836 25.6875 141.031 25.6875L140.844 24.2344H142.109V20.0156H141.109V18.6094H147.672ZM143.516 31.1094V26.6562H145.25V29.7031H153.422V31.1094H143.516ZM143.703 24.2109C144.156 24.2031 144.617 24.1875 145.078 24.1641V20.0156H143.703V24.2109ZM148.453 27.4844V17.5469H150.078V21.4219H151.375V17.2812H153.031V27.9688H151.375V22.8594H150.078V27.4844H148.453ZM161.984 18.1094V19.5H157.281V23.4844C159.648 23.4766 161.047 23.3984 162.656 23.0781L162.828 24.4688C161.039 24.8359 159.461 24.9141 156.641 24.9219H155.547V18.1094H161.984ZM157.219 31.2031V26.0625H166.609V31.2031H157.219ZM158.953 29.8125H164.906V27.4375H158.953V29.8125ZM161.25 22V20.5938H164.875V17.2656H166.609V25.4219H164.875V22H161.25ZM177.75 20.6562C177.734 23.25 179.102 25.8438 181.391 26.8281L180.359 28.2188C178.734 27.4688 177.547 25.9766 176.891 24.1328C176.242 26.1172 175.023 27.7422 173.312 28.5469L172.25 27.0938C174.602 26.0781 175.977 23.3828 175.984 20.6562V18.4062H177.75V20.6562ZM182.406 31.4062V17.2656H184.156V31.4062H182.406ZM191.297 19.7188C191.297 21.4609 192.414 23.1719 194.641 23.9062L193.766 25.25C192.18 24.7188 191.062 23.6641 190.445 22.3438C189.82 23.7891 188.648 24.9375 187 25.5L186.078 24.1562C188.352 23.3984 189.547 21.5703 189.547 19.7188V19.5469H186.562V18.1562H194.234V19.5469H191.297V19.7188ZM187.969 27.8281V26.4375H197.375V31.3906H195.641V27.8281H187.969ZM195.641 25.7812V17.2656H197.375V20.7969H199.344V22.25H197.375V25.7812H195.641ZM211.125 17.2656V22.8906H213.297V24.3281H211.125V31.3906H209.406V17.2656H211.125ZM199.984 20.8281V19.4375H203.328V17.4688H205.062V19.4375H208.312V20.8281H199.984ZM200.641 25.0781C200.625 23.125 202.141 21.7422 204.203 21.75C206.234 21.7422 207.742 23.125 207.75 25.0781C207.742 27.0234 206.234 28.3906 204.203 28.3906C202.141 28.3906 200.625 27.0234 200.641 25.0781ZM202.297 25.0781C202.289 26.2266 203.094 26.9609 204.203 26.9531C205.289 26.9609 206.078 26.2266 206.094 25.0781C206.078 23.9297 205.289 23.1719 204.203 23.1719C203.094 23.1719 202.289 23.9297 202.297 25.0781ZM225.688 17.2656V31.3906H223.938V17.2656H225.688ZM213.984 27.5C217.688 25.7422 219.391 23.3516 219.703 20.1406H214.703V18.7656H221.469C221.469 22.9688 219.836 26.5391 214.891 28.8906L213.984 27.5Z" fill="white"/>
</svg>
