<svg width="120" height="40" viewBox="0 0 120 40" fill="none" xmlns="http://www.w3.org/2000/svg">
<rect width="120" height="40" rx="20" fill="#F5F5F5"/>
<path d="M56.1348 15.1562V16.3457H53.5781C53.6055 17.4189 54.583 18.3691 56.4082 18.7246L55.8066 19.9004C54.3916 19.6064 53.3936 18.9434 52.8467 18.0547C52.3066 19.0254 51.2812 19.7568 49.832 20.0645L49.1895 18.8887C51.042 18.5195 52.0264 17.4805 52.0469 16.3457H49.5039V15.1562H52.0605V13.8848H53.5781V15.1562H56.1348ZM48.7246 20.707C51.0283 20.7139 54.0977 20.6934 56.7363 20.3652L56.8457 21.459C55.7793 21.6436 54.6719 21.7598 53.5918 21.835V25.834H52.0605V21.917C50.9326 21.958 49.8594 21.9648 48.916 21.9648L48.7246 20.707ZM57.543 26.2031V13.8711H59.0469V26.2031H57.543ZM72.1035 23.4551V24.6855H60.8105V23.4551H65.6504V20.5977H67.1543V23.4551H72.1035ZM61.1387 19.6406C63.7227 19.2236 65.5752 17.3711 65.582 15.5117V14.6094H67.1953V15.5117C67.1953 17.3779 69.0615 19.2236 71.666 19.6406L71.0098 20.8984C68.9248 20.502 67.209 19.3057 66.3887 17.6855C65.5752 19.2988 63.8799 20.5088 61.7949 20.8984L61.1387 19.6406Z" fill="#ABABAB"/>
</svg>
