<svg width="81" height="34" viewBox="0 0 81 34" fill="none" xmlns="http://www.w3.org/2000/svg">
<rect x="0.5" y="0.5" width="80" height="33" rx="7.5" fill="#EEEBF6"/>
<path d="M17.1466 19.9707L18.3206 19.6321L25.3893 12.4787C25.4451 12.4216 25.4761 12.3448 25.4757 12.265C25.4754 12.1852 25.4436 12.1087 25.3873 12.0521L24.964 11.6241C24.9366 11.596 24.9039 11.5736 24.8678 11.5582C24.8317 11.5429 24.793 11.5349 24.7537 11.5347C24.7145 11.5345 24.6756 11.5421 24.6394 11.5571C24.6032 11.5721 24.5703 11.5942 24.5426 11.6221L17.4926 18.7567L17.146 19.9701L17.1466 19.9707ZM25.802 10.7761L26.2253 11.2047C26.8093 11.7961 26.8146 12.7501 26.236 13.3354L18.952 20.7074L16.4426 21.4301C16.2894 21.4729 16.1255 21.4533 15.9868 21.3754C15.848 21.2976 15.7458 21.1678 15.7026 21.0147C15.6705 20.9046 15.67 20.7877 15.7013 20.6774L16.4313 18.1174L23.696 10.7647C23.8341 10.6256 23.9986 10.5154 24.1797 10.4406C24.3609 10.3657 24.5552 10.3276 24.7512 10.3286C24.9472 10.3296 25.1411 10.3696 25.3215 10.4463C25.5019 10.523 25.6653 10.6356 25.802 10.7761ZM18.1226 11.5447C18.4533 11.5447 18.7213 11.8161 18.7213 12.1507C18.7218 12.2298 18.7068 12.3083 18.677 12.3816C18.6472 12.4548 18.6032 12.5215 18.5476 12.5778C18.492 12.6341 18.4258 12.6789 18.3529 12.7096C18.28 12.7403 18.2018 12.7563 18.1226 12.7567H15.728C15.0666 12.7567 14.5306 13.2994 14.5306 13.9681V21.2387C14.5306 21.9081 15.0666 22.4507 15.728 22.4507H22.912C23.5733 22.4507 24.11 21.9081 24.11 21.2387V18.8154C24.11 18.4807 24.378 18.2094 24.7086 18.2094C25.0393 18.2094 25.3073 18.4807 25.3073 18.8161V21.2387C25.3073 22.5774 24.2346 23.6627 22.912 23.6627H15.728C14.4053 23.6627 13.3333 22.5774 13.3333 21.2387V13.9681C13.3333 12.6301 14.4053 11.5447 15.728 11.5447H18.1226Z" fill="#5639A6"/>
<path d="M42.6729 11.377V12.1973C42.6797 13.0039 42.6797 14.0293 42.4199 15.3145H44.0537V16.5176H32.7607V15.3145H40.8887C41.1143 14.1865 41.1484 13.3115 41.1553 12.5801H34.1553V11.377H42.6729ZM34.0596 18.6914V17.502H42.6592V20.8516H35.5908V21.9043H42.9736V23.0938H34.0732V19.6895H41.1416V18.6914H34.0596ZM48.7842 13.2637C48.7842 14.4395 49.2832 15.8271 50.5 16.6748C51.6895 15.8408 52.1885 14.46 52.1885 13.2637V11.7871H53.7197V13.2637C53.7129 14.7607 54.4443 16.292 56.126 16.9824L55.3057 18.1172C54.1367 17.6182 53.3711 16.7021 52.9473 15.5879C52.5234 16.7432 51.7305 17.7549 50.4795 18.2812C49.2217 17.7549 48.4287 16.7227 48.0117 15.5605C47.5742 16.6611 46.8018 17.6045 45.6533 18.1172L44.8604 16.9824C46.4941 16.2646 47.2598 14.6787 47.2666 13.2637V11.7871H48.7842V13.2637ZM44.8604 21.6309V20.3867H56.126V21.6309H44.8604ZM67.2822 10.8574V23.2168H65.751V10.8574H67.2822ZM57.042 19.8125C60.2822 18.2744 61.7725 16.1826 62.0459 13.373H57.6709V12.1699H63.5908C63.5908 15.8477 62.1621 18.9717 57.835 21.0293L57.042 19.8125Z" fill="#5639A6"/>
<rect x="0.5" y="0.5" width="80" height="33" rx="7.5" stroke="#5639A6"/>
</svg>
