<svg width="120" height="40" viewBox="0 0 120 40" fill="none" xmlns="http://www.w3.org/2000/svg">
<rect width="120" height="40" rx="20" fill="#5639A6"/>
<path d="M45.2305 13.8164V20.625H43.4941V18.0273H41.5254V16.6055H43.4941V13.8164H45.2305ZM34.6758 19.4766C36.6377 18.8203 37.5742 17.3164 37.6631 15.7988H35.168V14.377H41.9219V15.7988H39.4541C39.5293 17.1865 40.4248 18.6221 42.3047 19.2441L41.4434 20.584C40.0693 20.1328 39.1191 19.2373 38.5791 18.123C38.0254 19.3672 37.0342 20.3652 35.5645 20.8438L34.6758 19.4766ZM36.9316 26.1211V21.1035H38.6543V22.2793H43.4941V21.1035H45.2305V26.1211H36.9316ZM38.6543 24.7266H43.4941V23.6191H38.6543V24.7266ZM56.8789 14.5137V15.5664C56.8857 16.6191 56.8857 17.8018 56.6055 19.3262H58.2324V20.7207H46.8438V19.3262H54.8281C55.1016 17.9385 55.1357 16.8926 55.1426 15.9082H48.2383V14.5137H56.8789ZM48.293 26.0254V21.8145H50.0156V24.6309H57.2344V26.0254H48.293ZM69.5117 15.6758V17.0703H62.1973V15.6758H64.9727V14.0078H66.709V15.6758H69.5117ZM62.8398 20.7344C62.8398 19.0186 64.125 17.7607 65.8477 17.7676C67.5635 17.7607 68.8281 19.0186 68.8418 20.7344C68.8281 22.4297 67.5635 23.6943 65.8477 23.7012C64.125 23.6943 62.8398 22.4297 62.8398 20.7344ZM64.4668 20.7344C64.46 21.6709 65.0547 22.2246 65.8477 22.2109C66.6406 22.2246 67.2354 21.6709 67.2285 20.7344C67.2354 19.8115 66.6406 19.2373 65.8477 19.2305C65.0547 19.2373 64.46 19.8115 64.4668 20.7344ZM69.252 20.1465V18.7383H70.9473V13.8164H72.6699V26.2578H70.9473V20.1465H69.252ZM85.6172 19.709V21.1035H74.2695V19.709H76.8262V18.2188C75.917 17.8154 75.4043 17.2002 75.4043 16.4004C75.4043 14.8965 77.1748 14.001 79.9434 13.9941C82.6914 14.001 84.4619 14.8965 84.4688 16.4004C84.4619 17.2139 83.9355 17.8359 83.0059 18.2324V19.709H85.6172ZM75.5684 23.9883C75.5684 22.5527 77.2021 21.7529 79.9297 21.7598C82.6162 21.7529 84.25 22.5527 84.2637 23.9883C84.25 25.458 82.6162 26.2441 79.9297 26.2441C77.2021 26.2441 75.5684 25.458 75.5684 23.9883ZM77.2227 16.4004C77.209 17.084 78.1865 17.4326 79.9434 17.4258C81.6797 17.4326 82.6641 17.084 82.6641 16.4004C82.6641 15.7031 81.6797 15.334 79.9434 15.334C78.1865 15.334 77.209 15.7031 77.2227 16.4004ZM77.3457 23.9883C77.3389 24.624 78.207 24.9453 79.9297 24.9453C81.6182 24.9453 82.5068 24.624 82.5137 23.9883C82.5068 23.373 81.6182 23.0791 79.9297 23.0723C78.207 23.0791 77.3389 23.373 77.3457 23.9883ZM78.5898 19.709H81.2695V18.6631C80.8594 18.7178 80.415 18.7383 79.9434 18.7383C79.458 18.7383 79.0068 18.7109 78.5898 18.6631V19.709Z" fill="white"/>
</svg>
