<svg width="61" height="18" viewBox="0 0 61 18" fill="none" xmlns="http://www.w3.org/2000/svg">
<path d="M4.85352 5.40039C4.84668 6.74707 5.85156 8.0459 7.79297 8.58594L7.0957 9.76172C5.67383 9.37207 4.66895 8.54492 4.1084 7.48535C3.56836 8.6543 2.53613 9.55664 1.06641 9.98047L0.341797 8.80469C2.29004 8.25781 3.33594 6.87695 3.33594 5.40039V5.37305H0.751953V4.16992H3.33594V2.80273H4.86719V4.16992H7.4375V5.37305H4.85352V5.40039ZM2.17383 15.0664V10.6504H10.1582V15.0664H2.17383ZM3.67773 13.8359H8.6543V11.8535H3.67773V13.8359ZM8.64062 10.1309V2.85742H10.1582V5.83789H11.8809V7.0957H10.1582V10.1309H8.64062ZM15.8867 3.75977C17.001 3.75977 17.9238 4.38184 18.4775 5.46875H21.3691V2.85742H22.873V15.2305H21.3691V10.5547H18.5869C18.0469 11.7852 17.0762 12.4961 15.8867 12.4961C14.0273 12.4961 12.708 10.8076 12.7148 8.12109C12.708 5.45508 14.0273 3.75977 15.8867 3.75977ZM14.1777 8.12109C14.1709 10.0215 14.8682 11.1221 15.8867 11.1289C16.9121 11.1221 17.6025 10.0215 17.6094 8.12109C17.6025 6.23438 16.9121 5.12695 15.8867 5.12695C14.8682 5.12695 14.1709 6.23438 14.1777 8.12109ZM18.9082 6.71289C18.9971 7.14355 19.0449 7.61523 19.0449 8.12109C19.0449 8.54492 19.0107 8.94824 18.9424 9.32422H21.3691V6.71289H18.9082ZM34.2891 2.85742V7.7793H36.1895V9.03711H34.2891V15.2168H32.7852V2.85742H34.2891ZM24.541 5.97461V4.75781H27.4668V3.03516H28.9844V4.75781H31.8281V5.97461H24.541ZM25.1152 9.69336C25.1016 7.98438 26.4277 6.77441 28.2324 6.78125C30.0098 6.77441 31.3291 7.98438 31.3359 9.69336C31.3291 11.3955 30.0098 12.5918 28.2324 12.5918C26.4277 12.5918 25.1016 11.3955 25.1152 9.69336ZM26.5645 9.69336C26.5576 10.6982 27.2617 11.3408 28.2324 11.334C29.1826 11.3408 29.873 10.6982 29.8867 9.69336C29.873 8.68848 29.1826 8.02539 28.2324 8.02539C27.2617 8.02539 26.5576 8.68848 26.5645 9.69336ZM47.0312 2.85742V15.2168H45.5V2.85742H47.0312ZM36.791 11.8125C40.0312 10.2744 41.5215 8.18262 41.7949 5.37305H37.4199V4.16992H43.3398C43.3398 7.84766 41.9111 10.9717 37.584 13.0293L36.791 11.8125Z" fill="#5639A6"/>
<path d="M55 4L60 9L55 14" stroke="#5639A6" stroke-width="1.5" stroke-linecap="round" stroke-linejoin="round"/>
</svg>
