<svg width="327" height="48" viewBox="0 0 327 48" fill="none" xmlns="http://www.w3.org/2000/svg">
<g filter="url(#filter0_b_177_820)">
<rect width="327" height="48" rx="8" fill="#FBE44D"/>
</g>
<path d="M122.812 18.6562C122.805 22.9219 121.641 26.5859 116.438 29.1719L115.484 27.8594C117.93 26.6562 119.391 25.2422 120.211 23.5703L115.812 23.9844L115.594 22.4844L120.734 22.1641C120.914 21.5 121.031 20.8047 121.086 20.0625H116.328V18.6562H122.812ZM124.797 31.3594V17.2656H126.531V22.7969H128.625V24.2188H126.531V31.3594H124.797ZM136.641 18.6562C136.633 22.9219 135.469 26.5859 130.266 29.1719L129.312 27.8594C131.758 26.6562 133.219 25.2422 134.039 23.5703L129.641 23.9844L129.422 22.4844L134.562 22.1641C134.742 21.5 134.859 20.8047 134.914 20.0625H130.156V18.6562H136.641ZM138.625 31.3594V17.2656H140.359V22.7969H142.453V24.2188H140.359V31.3594H138.625ZM149.547 18.0625C152.578 18.0703 154.82 19.5781 154.812 21.875C154.82 23.9922 153 25.4062 150.406 25.6641V28.25H156.031V29.6719H143.125V28.25H148.688V25.6641C146.125 25.4062 144.305 23.9922 144.312 21.875C144.305 19.5781 146.539 18.0703 149.547 18.0625ZM146.016 21.875C146.008 23.3984 147.484 24.3125 149.547 24.3125C151.641 24.3125 153.109 23.3984 153.109 21.875C153.109 20.3984 151.641 19.4609 149.547 19.4688C147.484 19.4609 146.008 20.3984 146.016 21.875ZM169.859 28.3125V29.75H156.953V28.3125H162.516V26.0156H158.484V21.3906H166.609V19.6406H158.453V18.2344H168.328V22.7656H160.219V24.5938H168.656V26.0156H164.234V28.3125H169.859ZM179.922 20.6562C179.906 23.25 181.273 25.8438 183.562 26.8281L182.531 28.2188C180.906 27.4688 179.719 25.9766 179.062 24.1328C178.414 26.1172 177.195 27.7422 175.484 28.5469L174.422 27.0938C176.773 26.0781 178.148 23.3828 178.156 20.6562V18.4062H179.922V20.6562ZM184.578 31.4062V17.2656H186.328V31.4062H184.578ZM193.469 19.7188C193.469 21.4609 194.586 23.1719 196.812 23.9062L195.938 25.25C194.352 24.7188 193.234 23.6641 192.617 22.3438C191.992 23.7891 190.82 24.9375 189.172 25.5L188.25 24.1562C190.523 23.3984 191.719 21.5703 191.719 19.7188V19.5469H188.734V18.1562H196.406V19.5469H193.469V19.7188ZM190.141 27.8281V26.4375H199.547V31.3906H197.812V27.8281H190.141ZM197.812 25.7812V17.2656H199.547V20.7969H201.516V22.25H199.547V25.7812H197.812ZM213.297 17.2656V22.8906H215.469V24.3281H213.297V31.3906H211.578V17.2656H213.297ZM202.156 20.8281V19.4375H205.5V17.4688H207.234V19.4375H210.484V20.8281H202.156ZM202.812 25.0781C202.797 23.125 204.312 21.7422 206.375 21.75C208.406 21.7422 209.914 23.125 209.922 25.0781C209.914 27.0234 208.406 28.3906 206.375 28.3906C204.312 28.3906 202.797 27.0234 202.812 25.0781ZM204.469 25.0781C204.461 26.2266 205.266 26.9609 206.375 26.9531C207.461 26.9609 208.25 26.2266 208.266 25.0781C208.25 23.9297 207.461 23.1719 206.375 23.1719C205.266 23.1719 204.461 23.9297 204.469 25.0781ZM227.859 17.2656V31.3906H226.109V17.2656H227.859ZM216.156 27.5C219.859 25.7422 221.562 23.3516 221.875 20.1406H216.875V18.7656H223.641C223.641 22.9688 222.008 26.5391 217.062 28.8906L216.156 27.5Z" fill="#212121"/>
<ellipse cx="32.125" cy="23.5" rx="11" ry="8.5" fill="#212121"/>
<path d="M24.7593 35.3707C24.4564 35.591 24.0439 35.3114 24.1364 34.9485L25.8995 28.0239C25.9679 27.7553 26.2821 27.6359 26.5115 27.7914L30.527 30.5128C30.7564 30.6683 30.762 31.0044 30.5378 31.1674L24.7593 35.3707Z" fill="#212121"/>
<defs>
<filter id="filter0_b_177_820" x="-4" y="-4" width="335" height="56" filterUnits="userSpaceOnUse" color-interpolation-filters="sRGB">
<feFlood flood-opacity="0" result="BackgroundImageFix"/>
<feGaussianBlur in="BackgroundImageFix" stdDeviation="2"/>
<feComposite in2="SourceAlpha" operator="in" result="effect1_backgroundBlur_177_820"/>
<feBlend mode="normal" in="SourceGraphic" in2="effect1_backgroundBlur_177_820" result="shape"/>
</filter>
</defs>
</svg>
