<svg width="327" height="48" viewBox="0 0 327 48" fill="none" xmlns="http://www.w3.org/2000/svg">
<rect width="327" height="48" rx="8" fill="#5639A6"/>
<path d="M134.016 25.9844C136.945 25.9844 138.742 26.9766 138.75 28.6719C138.742 30.3906 136.945 31.3828 134.016 31.3906C131.062 31.3828 129.234 30.3906 129.234 28.6719C129.234 26.9766 131.062 25.9844 134.016 25.9844ZM127.953 24.75V18.1562H129.672V20.0625H132.969V18.1562H134.688V24.75H127.953ZM129.672 23.375H132.969V21.4219H129.672V23.375ZM130.969 28.6719C130.969 29.5469 132.078 30.0234 134.016 30.0156C135.945 30.0234 137.031 29.5469 137.031 28.6719C137.031 27.7969 135.945 27.3516 134.016 27.3438C132.078 27.3516 130.969 27.7969 130.969 28.6719ZM136.875 25.6406V17.2656H138.609V20.6406H140.578V22.0938H138.609V25.6406H136.875ZM156.859 17.2656V24.8438H155.109V17.2656H156.859ZM145.344 21.2031C145.344 19.2422 146.969 17.8828 149.156 17.8906C151.336 17.8828 152.961 19.2422 152.953 21.2031C152.961 23.1328 151.336 24.4922 149.156 24.4844C146.969 24.4922 145.344 23.1328 145.344 21.2031ZM147.047 21.2031C147.039 22.3359 147.922 23.0547 149.156 23.0625C150.367 23.0547 151.25 22.3359 151.25 21.2031C151.25 20.0703 150.367 19.3359 149.156 19.3438C147.922 19.3359 147.039 20.0703 147.047 21.2031ZM147.516 31.2188V25.5H149.234V26.9531H155.125V25.5H156.859V31.2188H147.516ZM149.234 29.8125H155.125V28.3125H149.234V29.8125ZM163.984 19.8125C163.984 21.5391 165.102 23.1641 167.312 23.8438L166.484 25.2031C164.898 24.7031 163.773 23.6953 163.156 22.4219C162.531 23.9062 161.344 25.0859 159.641 25.6562L158.766 24.2812C161.039 23.5391 162.234 21.7031 162.234 19.8281V19.6562H159.25V18.25H166.922V19.6562H163.984V19.8125ZM160.688 28.6719C160.688 26.9844 162.516 26 165.469 26C168.398 26 170.195 26.9844 170.203 28.6719C170.195 30.375 168.398 31.375 165.469 31.375C162.516 31.375 160.688 30.375 160.688 28.6719ZM162.422 28.6719C162.422 29.5469 163.531 30.0078 165.469 30.0156C167.398 30.0078 168.484 29.5469 168.484 28.6719C168.484 27.8125 167.398 27.3594 165.469 27.3594C163.531 27.3594 162.422 27.8125 162.422 28.6719ZM168.328 25.6875V17.2656H170.062V20.6562H172.031V22.0781H170.062V25.6875H168.328ZM183.812 17.2656V22.8906H185.984V24.3281H183.812V31.3906H182.094V17.2656H183.812ZM172.672 20.8281V19.4375H176.016V17.4688H177.75V19.4375H181V20.8281H172.672ZM173.328 25.0781C173.312 23.125 174.828 21.7422 176.891 21.75C178.922 21.7422 180.43 23.125 180.438 25.0781C180.43 27.0234 178.922 28.3906 176.891 28.3906C174.828 28.3906 173.312 27.0234 173.328 25.0781ZM174.984 25.0781C174.977 26.2266 175.781 26.9609 176.891 26.9531C177.977 26.9609 178.766 26.2266 178.781 25.0781C178.766 23.9297 177.977 23.1719 176.891 23.1719C175.781 23.1719 174.977 23.9297 174.984 25.0781ZM198.375 17.2656V31.3906H196.625V17.2656H198.375ZM186.672 27.5C190.375 25.7422 192.078 23.3516 192.391 20.1406H187.391V18.7656H194.156C194.156 22.9688 192.523 26.5391 187.578 28.8906L186.672 27.5Z" fill="white"/>
</svg>
