<svg width="327" height="48" viewBox="0 0 327 48" fill="none" xmlns="http://www.w3.org/2000/svg">
<rect width="327" height="48" rx="8" fill="#F5F5F5"/>
<path d="M140.016 25.9844C142.938 25.9844 144.734 26.9688 144.75 28.6719C144.734 30.3906 142.938 31.3906 140.016 31.3906C137.062 31.3906 135.234 30.3906 135.234 28.6719C135.234 26.9688 137.062 25.9844 140.016 25.9844ZM140.016 27.3438C138.078 27.3438 136.969 27.7969 136.969 28.6719C136.969 29.5469 138.078 30.0156 140.016 30.0156C141.953 30.0156 143.031 29.5469 143.031 28.6719C143.031 27.7969 141.953 27.3438 140.016 27.3438ZM144.609 17.2656V20.6406H146.578V22.0938H144.609V25.6406H142.875V17.2656H144.609ZM135.672 18.1562V20.0625H138.969V18.1562H140.688V24.75H133.953V18.1562H135.672ZM135.672 23.375H138.969V21.4219H135.672V23.375ZM158.266 18.4844V25.1562H151.578V18.4844H158.266ZM153.281 19.875V23.7812H156.562V19.875H153.281ZM162.234 17.2656V21.4062H164.203V22.8594H162.234V27.5781H160.5V17.2656H162.234ZM162.797 29.7031V31.1094H153.188V26.5781H154.922V29.7031H162.797ZM177.812 22.9219V24.2969H164.922V22.9219H177.812ZM176.281 20.6406V22.0156H166.562V17.625H176.156V19.0156H168.297V20.6406H176.281ZM176.188 25.2656V28.8125H168.156V29.8906H176.578V31.25H166.453V27.5625H174.484V26.5781H166.438V25.2656H176.188ZM190.547 17.2656V31.3906H188.797V17.2656H190.547ZM186.328 18.7656C186.328 22.9688 184.703 26.5469 179.75 28.8906L178.844 27.5C182.539 25.7422 184.258 23.3516 184.562 20.1406H179.562V18.7656H186.328Z" fill="#ABABAB"/>
</svg>
