<svg width="16" height="16" viewBox="0 0 16 16" fill="none" xmlns="http://www.w3.org/2000/svg">
<g id="fe:search">
<g id="feSearch0">
<g id="feSearch1">
<path id="feSearch2" fill-rule="evenodd" clip-rule="evenodd" d="M10.8834 9.93266L14.47 13.5193C14.5961 13.6455 14.6669 13.8165 14.6668 13.9949C14.6668 14.1732 14.5959 14.3443 14.4697 14.4703C14.3436 14.5964 14.1725 14.6672 13.9941 14.6671C13.8158 14.6671 13.6448 14.5961 13.5187 14.47L9.93205 10.8833C8.85986 11.7138 7.51157 12.1046 6.16147 11.9762C4.81137 11.8479 3.56087 11.21 2.66437 10.1924C1.76787 9.17479 1.29271 7.85387 1.33555 6.49836C1.37839 5.14285 1.93602 3.85457 2.89499 2.8956C3.85396 1.93663 5.14223 1.379 6.49775 1.33616C7.85326 1.29332 9.17418 1.76848 10.1918 2.66498C11.2094 3.56148 11.8473 4.81198 11.9756 6.16208C12.104 7.51218 11.7132 8.86047 10.8827 9.93266H10.8834ZM6.66672 10.6667C7.72758 10.6667 8.745 10.2452 9.49514 9.49509C10.2453 8.74494 10.6667 7.72752 10.6667 6.66666C10.6667 5.60579 10.2453 4.58838 9.49514 3.83823C8.745 3.08809 7.72758 2.66666 6.66672 2.66666C5.60585 2.66666 4.58843 3.08809 3.83829 3.83823C3.08814 4.58838 2.66672 5.60579 2.66672 6.66666C2.66672 7.72752 3.08814 8.74494 3.83829 9.49509C4.58843 10.2452 5.60585 10.6667 6.66672 10.6667Z" fill="#ABABAB"/>
</g>
</g>
</g>
</svg>
