<svg width="48" height="48" viewBox="0 0 48 48" fill="none" xmlns="http://www.w3.org/2000/svg">
<circle cx="24" cy="24" r="20" fill="#EEEBF6"/>
<g clip-path="url(#clip0_177_1121)">
<path d="M24 21.8654C24.8264 21.8654 25.533 22.1531 26.1198 22.7287C26.7066 23.3042 27 23.9972 27 24.8077C27 25.6182 26.7066 26.3112 26.1198 26.8867C25.533 27.4622 24.8264 27.75 24 27.75C23.1736 27.75 22.467 27.4622 21.8802 26.8867C21.2934 26.3112 21 25.6182 21 24.8077C21 23.9972 21.2934 23.3042 21.8802 22.7287C22.467 22.1531 23.1736 21.8654 24 21.8654ZM31.3333 17.6154C32.0694 17.6154 32.6979 17.8708 33.2188 18.3816C33.7396 18.8924 34 19.5088 34 20.2308V29.3846C34 30.1066 33.7396 30.723 33.2188 31.2338C32.6979 31.7446 32.0694 32 31.3333 32H16.6667C15.9306 32 15.3021 31.7446 14.7812 31.2338C14.2604 30.723 14 30.1066 14 29.3846V20.2308C14 19.5088 14.2604 18.8924 14.7812 18.3816C15.3021 17.8708 15.9306 17.6154 16.6667 17.6154H19L19.5312 16.226C19.6632 15.8922 19.9045 15.6045 20.2552 15.3627C20.6059 15.1209 20.9653 15 21.3333 15H26.6667C27.0347 15 27.3941 15.1209 27.7448 15.3627C28.0955 15.6045 28.3368 15.8922 28.4688 16.226L29 17.6154H31.3333ZM24 29.3846C25.2847 29.3846 26.3837 28.9368 27.2969 28.0412C28.2101 27.1455 28.6667 26.0677 28.6667 24.8077C28.6667 23.5477 28.2101 22.4699 27.2969 21.5742C26.3837 20.6786 25.2847 20.2308 24 20.2308C22.7153 20.2308 21.6163 20.6786 20.7031 21.5742C19.7899 22.4699 19.3333 23.5477 19.3333 24.8077C19.3333 26.0677 19.7899 27.1455 20.7031 28.0412C21.6163 28.9368 22.7153 29.3846 24 29.3846Z" fill="#5639A6"/>
</g>
<defs>
<clipPath id="clip0_177_1121">
<rect width="20" height="17" fill="white" transform="translate(14 15)"/>
</clipPath>
</defs>
</svg>
