<svg width="100" height="100" viewBox="0 0 100 100" fill="none" xmlns="http://www.w3.org/2000/svg">
<circle cx="48" cy="48" r="40" fill="#EEEBF6"/>
<path d="M64 40C64 44.2435 62.3143 48.3131 59.3137 51.3137C56.3131 54.3143 52.2435 56 48 56C43.7565 56 39.6869 54.3143 36.6863 51.3137C33.6857 48.3131 32 44.2435 32 40C32 35.7565 33.6857 31.6869 36.6863 28.6863C39.6869 25.6857 43.7565 24 48 24C52.2435 24 56.3131 25.6857 59.3137 28.6863C62.3143 31.6869 64 35.7565 64 40Z" fill="#BEB5D8"/>
<path fill-rule="evenodd" clip-rule="evenodd" d="M46.368 87.968C25.034 87.112 8 69.544 8 48C8 25.908 25.908 8 48 8C70.092 8 88 25.908 88 48C88 70.092 70.092 88 48 88C47.8173 88.0012 47.6347 88.0012 47.452 88C47.09 88 46.728 87.988 46.368 87.968ZM22.332 73.24C22.0329 72.3811 21.9311 71.466 22.0342 70.5624C22.1372 69.6588 22.4424 68.79 22.9272 68.0205C23.4119 67.251 24.0637 66.6006 24.8342 66.1175C25.6048 65.6344 26.4742 65.3311 27.378 65.23C42.97 63.504 53.126 63.66 68.642 65.266C69.547 65.3602 70.4186 65.6598 71.1903 66.1418C71.9621 66.6238 72.6137 67.2755 73.0955 68.0474C73.5773 68.8193 73.8766 69.6909 73.9706 70.596C74.0646 71.501 73.9509 72.4156 73.638 73.27C80.2879 66.5418 84.0119 57.4599 84 48C84 28.118 67.882 12 48 12C28.118 12 12 28.118 12 48C12 57.832 15.942 66.744 22.332 73.24Z" fill="#BEB5D8"/>
<g filter="url(#filter0_d_141_403)">
<circle cx="80" cy="80" r="16" fill="white"/>
</g>
<g clip-path="url(#clip0_141_403)">
<path d="M80 78.6538C80.6611 78.6538 81.2264 78.8908 81.6958 79.3648C82.1653 79.8387 82.4 80.4095 82.4 81.0769C82.4 81.7444 82.1653 82.3151 81.6958 82.7891C81.2264 83.263 80.6611 83.5 80 83.5C79.3389 83.5 78.7736 83.263 78.3042 82.7891C77.8347 82.3151 77.6 81.7444 77.6 81.0769C77.6 80.4095 77.8347 79.8387 78.3042 79.3648C78.7736 78.8908 79.3389 78.6538 80 78.6538ZM85.8667 75.1538C86.4556 75.1538 86.9583 75.3642 87.375 75.7849C87.7917 76.2055 88 76.7131 88 77.3077V84.8462C88 85.4407 87.7917 85.9483 87.375 86.369C86.9583 86.7897 86.4556 87 85.8667 87H74.1333C73.5444 87 73.0417 86.7897 72.625 86.369C72.2083 85.9483 72 85.4407 72 84.8462V77.3077C72 76.7131 72.2083 76.2055 72.625 75.7849C73.0417 75.3642 73.5444 75.1538 74.1333 75.1538H76L76.425 74.0096C76.5306 73.7348 76.7236 73.4978 77.0042 73.2987C77.2847 73.0996 77.5722 73 77.8667 73H82.1333C82.4278 73 82.7153 73.0996 82.9958 73.2987C83.2764 73.4978 83.4694 73.7348 83.575 74.0096L84 75.1538H85.8667ZM80 84.8462C81.0278 84.8462 81.9069 84.4774 82.6375 83.7398C83.3681 83.0022 83.7333 82.1146 83.7333 81.0769C83.7333 80.0393 83.3681 79.1516 82.6375 78.4141C81.9069 77.6765 81.0278 77.3077 80 77.3077C78.9722 77.3077 78.0931 77.6765 77.3625 78.4141C76.6319 79.1516 76.2667 80.0393 76.2667 81.0769C76.2667 82.1146 76.6319 83.0022 77.3625 83.7398C78.0931 84.4774 78.9722 84.8462 80 84.8462Z" fill="#ABABAB"/>
</g>
<defs>
<filter id="filter0_d_141_403" x="60" y="60" width="40" height="40" filterUnits="userSpaceOnUse" color-interpolation-filters="sRGB">
<feFlood flood-opacity="0" result="BackgroundImageFix"/>
<feColorMatrix in="SourceAlpha" type="matrix" values="0 0 0 0 0 0 0 0 0 0 0 0 0 0 0 0 0 0 127 0" result="hardAlpha"/>
<feOffset/>
<feGaussianBlur stdDeviation="2"/>
<feComposite in2="hardAlpha" operator="out"/>
<feColorMatrix type="matrix" values="0 0 0 0 0 0 0 0 0 0 0 0 0 0 0 0 0 0 0.1 0"/>
<feBlend mode="normal" in2="BackgroundImageFix" result="effect1_dropShadow_141_403"/>
<feBlend mode="normal" in="SourceGraphic" in2="effect1_dropShadow_141_403" result="shape"/>
</filter>
<clipPath id="clip0_141_403">
<rect width="16" height="14" fill="white" transform="translate(72 73)"/>
</clipPath>
</defs>
</svg>
