<svg width="191" height="17" viewBox="0 0 191 17" fill="none" xmlns="http://www.w3.org/2000/svg">
<path d="M13.673 8.88801C12.601 9.06401 2.905 9.57601 1.657 9.52801C1.545 7.60801 1.577 3.70401 1.657 1.91201C2.649 1.78401 13.257 1.24001 13.673 1.27201C13.769 3.19201 13.769 7.92801 13.673 8.88801ZM4.041 3.94401C4.009 4.45601 4.009 6.76001 4.041 7.27201C5.577 7.22401 9.977 6.98401 11.289 6.88801C11.321 6.37601 11.321 4.07201 11.289 3.56001C9.753 3.62401 5.897 3.81601 4.041 3.94401ZM14.537 12.584C14.601 13.176 14.601 13.992 14.537 14.664C13.161 14.84 2.665 15.352 0.777004 15.384C0.713004 14.824 0.713004 13.944 0.777004 13.304C2.073 13.224 4.201 13.096 6.409 12.984C6.409 11.928 6.409 10.728 6.441 10.168C6.921 10.04 8.297 9.99201 8.889 10.04C8.905 10.68 8.905 11.848 8.905 12.856C11.513 12.712 13.833 12.6 14.537 12.584Z" fill="#BEB5D8"/>
<path d="M16.5358 7.14401C16.4398 5.91201 16.4558 2.64801 16.5358 1.44801C18.0878 1.28801 26.4558 0.888013 28.0558 0.840012C28.1198 1.44801 28.1198 2.24801 28.0558 2.85601C26.9358 2.95201 20.1838 3.30401 18.9838 3.33601V5.00001C20.2478 4.93601 27.0318 4.56801 28.2158 4.52001C28.2638 5.14401 28.2638 6.02401 28.2158 6.53601C26.9038 6.66401 18.1038 7.11201 16.5358 7.14401ZM15.4958 10.264C15.4318 9.73601 15.4318 8.87201 15.4958 8.26401C18.8238 8.04001 27.7518 7.59201 29.2558 7.54401C29.3198 8.10401 29.3198 8.92001 29.2558 9.54401C27.8798 9.72001 17.3838 10.232 15.4958 10.264ZM16.3758 15.784C16.2958 14.6 16.3278 12.072 16.3758 11.128C16.8718 11.048 18.2478 10.984 18.8238 11.016C18.8558 11.8 18.8558 12.856 18.8238 13.576C22.3598 13.368 27.4958 13.08 28.6958 13.048C28.7598 13.624 28.7598 14.536 28.6958 15.128C27.4158 15.272 17.8318 15.784 16.3758 15.784Z" fill="#BEB5D8"/>
<path d="M43.7499 11.288C43.3179 11.368 42.0539 11.432 41.4939 11.4C41.4299 9.96001 41.4459 2.08801 41.4939 1.03201C41.9259 0.936013 43.2699 0.888013 43.7499 0.920012C43.7659 1.46401 43.7819 2.93601 43.7819 4.61601L44.7419 4.56801C44.7419 2.76001 44.7579 1.20801 44.7579 0.792013C45.1899 0.680013 46.5499 0.616012 47.0299 0.664013C47.0619 2.02401 47.0619 9.76801 47.0299 11.224C46.5979 11.32 45.3179 11.352 44.7579 11.352C44.7419 10.712 44.7419 8.74401 44.7419 6.68001C44.4059 6.71201 44.0699 6.72801 43.7659 6.74401C43.7659 8.74401 43.7499 10.648 43.7499 11.288ZM40.9179 7.27201C40.9659 7.89601 40.9659 8.48801 40.9179 9.22401C38.8539 9.40001 35.4139 9.57601 33.5259 9.62401C33.4779 8.96801 33.4779 8.29601 33.5259 7.67201L34.4379 7.60801C34.4219 6.39201 34.4219 4.68001 34.4379 3.57601C34.1499 3.57601 33.8939 3.59201 33.6539 3.59201C33.6059 2.96801 33.6059 2.23201 33.6539 1.64001C36.3099 1.44801 39.3019 1.28801 40.7899 1.27201C40.8219 1.86401 40.8219 2.52001 40.7899 3.22401L40.0059 3.28801C40.0219 4.39201 40.0219 6.10401 40.0059 7.30401C40.3419 7.28801 40.6459 7.27201 40.9179 7.27201ZM36.6779 3.48001C36.6939 4.58401 36.6939 6.26401 36.6939 7.46401L37.7499 7.40001C37.7499 6.20001 37.7499 4.52001 37.7659 3.43201L36.6779 3.48001ZM47.3019 13.016C47.3659 13.592 47.3659 14.504 47.3019 15.096C46.0219 15.256 36.5179 15.752 35.0619 15.752C34.9819 14.568 35.0139 11.784 35.0619 10.84C35.5579 10.76 36.8699 10.696 37.4459 10.712C37.4779 11.512 37.4779 12.68 37.4459 13.544C40.9819 13.336 46.1019 13.048 47.3019 13.016Z" fill="#BEB5D8"/>
<path d="M59.0446 15.208C58.9646 13.336 58.9806 2.64801 59.0446 0.808013C59.4766 0.696012 60.9006 0.616012 61.4606 0.680013C61.5086 2.82401 61.5086 13.144 61.4606 15.08C60.9646 15.176 59.6046 15.224 59.0446 15.208ZM53.2526 10.104C50.1166 10.264 48.7566 8.76001 48.7566 5.88001C48.7566 3.01601 50.1166 1.33601 53.2526 1.17601C56.3886 1.01601 57.7486 2.53601 57.7486 5.40001C57.7486 8.28001 56.3886 9.94401 53.2526 10.104ZM53.2526 8.02401C54.7086 7.94401 55.3006 7.08001 55.3006 5.52801C55.3006 3.97601 54.7086 3.19201 53.2526 3.27201C51.7646 3.35201 51.2046 4.20001 51.2046 5.75201C51.2046 7.30401 51.7646 8.10401 53.2526 8.02401ZM48.3086 14.616C48.2286 14.008 48.2286 13.144 48.3086 12.536C49.6366 12.408 56.8686 12.024 58.2446 12.024C58.3086 12.696 58.3086 13.496 58.2446 14.104C57.3806 14.216 50.7566 14.552 48.3086 14.616Z" fill="#BEB5D8"/>
<path d="M80.5628 5.94401C80.6268 6.55201 80.6268 7.60801 80.5628 8.21601C80.3067 8.26401 79.8108 8.29601 79.1388 8.34401C79.1388 11.32 79.1227 14.2 79.0908 15.112C78.5947 15.192 77.2508 15.256 76.6908 15.24C76.6268 13.384 76.6428 2.69601 76.6908 0.840012C77.1228 0.712013 78.5308 0.664013 79.0908 0.712013C79.1227 1.56001 79.1388 3.65601 79.1388 5.99201C79.7308 5.96001 80.2108 5.96001 80.5628 5.94401ZM66.9308 1.80001C67.9228 1.65601 73.7948 1.33601 75.0268 1.36801C75.1228 3.11201 75.1228 13.368 75.0268 14.248C73.9548 14.408 68.1788 14.728 66.9308 14.68C66.8188 12.92 66.8508 3.41601 66.9308 1.80001ZM72.6108 12.232C72.6588 9.65601 72.6588 6.04001 72.6108 3.62401C71.7148 3.62401 70.4028 3.70401 69.3468 3.80001C69.3148 5.97601 69.2988 9.94401 69.3468 12.408C70.0828 12.392 71.9388 12.296 72.6108 12.232Z" fill="#BEB5D8"/>
<path d="M87.9695 6.68001C83.0415 6.93601 81.7775 6.07201 81.7775 4.07201C81.7775 2.08801 83.0415 1.09601 87.9695 0.840012C92.8975 0.584013 94.1615 1.44801 94.1615 3.43201C94.1615 5.43201 92.8975 6.42401 87.9695 6.68001ZM87.9695 4.56801C91.2975 4.39201 91.6815 4.08801 91.6815 3.56001C91.6815 3.04801 91.2975 2.77601 87.9695 2.95201C84.6415 3.12801 84.2575 3.43201 84.2575 3.94401C84.2575 4.47201 84.6415 4.74401 87.9695 4.56801ZM81.0895 9.67201C81.0255 9.14401 81.0255 8.28001 81.0895 7.67201C84.4175 7.44801 93.3455 7.00001 94.8495 6.95201C94.9135 7.51201 94.9135 8.32801 94.8495 8.95201C93.4735 9.12801 82.9775 9.64001 81.0895 9.67201ZM81.9695 15.784C81.8895 14.52 81.9215 11.816 81.9695 10.504C82.9615 10.408 93.0735 9.88001 93.9695 9.86401C94.0335 11.288 94.0335 13.944 93.9695 15.144C92.7375 15.304 83.2175 15.816 81.9695 15.784ZM84.2735 13.736C85.0095 13.752 90.9935 13.416 91.6655 13.352V11.928C90.7695 11.96 85.3295 12.232 84.2735 12.312V13.736Z" fill="#BEB5D8"/>
<path d="M102.688 7.14401C97.7603 7.40001 96.4963 6.45601 96.4963 4.29601C96.4963 2.15201 97.7603 1.08001 102.688 0.824013C107.616 0.568013 108.88 1.51201 108.88 3.65601C108.88 5.81601 107.616 6.88801 102.688 7.14401ZM102.688 5.04801C106.016 4.87201 106.4 4.45601 106.4 3.78401C106.4 3.12801 106.016 2.74401 102.688 2.92001C99.3603 3.09601 98.9763 3.51201 98.9763 4.16801C98.9763 4.84001 99.3603 5.22401 102.688 5.04801ZM95.8083 10.344C95.7443 9.81601 95.7443 8.95201 95.8083 8.34401C99.1363 8.12001 108.064 7.67201 109.568 7.62401C109.632 8.18401 109.632 9.00001 109.568 9.62401C108.192 9.80001 97.6963 10.312 95.8083 10.344ZM96.6883 15.784C96.6083 14.6 96.6403 12.152 96.6883 11.208C97.1843 11.128 98.5603 11.064 99.1363 11.096C99.1683 11.88 99.1683 12.856 99.1363 13.576C102.672 13.368 107.808 13.08 109.008 13.048C109.072 13.624 109.072 14.536 109.008 15.128C107.728 15.272 98.1443 15.784 96.6883 15.784Z" fill="#BEB5D8"/>
<path d="M115.742 10.408C115.406 10.136 114.542 9.09601 114.334 8.60001C115.582 7.57601 117.742 5.92801 119.47 4.56801C119.454 3.24001 119.47 2.23201 119.502 1.48001C119.934 1.41601 121.47 1.32001 122.03 1.35201C122.062 2.20001 122.078 3.20801 122.062 4.42401C123.822 5.56001 125.998 6.92001 127.278 7.76801C127.07 8.29601 126.238 9.44801 125.918 9.76801C125.022 9.22401 122.702 7.80001 120.798 6.50401C118.926 8.05601 116.654 9.76801 115.742 10.408ZM127.646 12.584C127.71 13.176 127.71 13.992 127.646 14.664C126.27 14.84 115.774 15.352 113.886 15.384C113.822 14.824 113.822 13.944 113.886 13.304C115.182 13.224 117.31 13.096 119.534 12.984C119.518 11.752 119.518 10.152 119.55 9.59201C120.03 9.46401 121.406 9.41601 121.998 9.46401C122.03 10.12 122.014 11.672 122.014 12.856C124.622 12.712 126.942 12.6 127.646 12.584Z" fill="#BEB5D8"/>
<path d="M135.517 5.64001C133.373 6.23201 130.749 6.85601 129.741 7.01601C129.437 6.58401 129.245 5.80001 129.261 5.12801L134.189 3.94401V3.20801C132.045 3.32001 130.141 3.41601 129.645 3.41601C129.581 2.77601 129.581 2.02401 129.645 1.44801C130.941 1.35201 138.477 0.920012 141.341 0.840012C141.389 1.44801 141.389 2.24801 141.341 2.80801C140.685 2.85601 138.829 2.96801 136.781 3.08001C136.781 3.33601 136.781 3.57601 136.765 3.83201C138.525 4.02401 140.445 4.24801 141.709 4.42401C141.693 5.08001 141.549 5.80001 141.277 6.34401C140.253 6.29601 137.661 5.97601 135.517 5.64001ZM142.365 6.79201C142.429 7.35201 142.429 8.16801 142.365 8.79201C141.757 8.87201 139.373 9.01601 136.733 9.14401C136.749 9.48001 136.733 9.78401 136.733 10.088C140.733 10.04 141.805 10.984 141.805 12.552C141.805 14.28 140.509 15.384 135.485 15.656C130.461 15.912 129.165 14.952 129.165 13.224C129.165 11.656 130.237 10.6 134.253 10.216C134.237 9.92801 134.237 9.60801 134.237 9.27201C131.725 9.40001 129.405 9.49601 128.605 9.51201C128.541 8.98401 128.541 8.12001 128.605 7.51201C131.933 7.28801 140.861 6.84001 142.365 6.79201ZM139.261 12.696C139.261 12.328 138.877 12.04 135.485 12.216C132.093 12.392 131.709 12.712 131.709 13.08C131.709 13.464 132.093 13.752 135.485 13.576C138.877 13.4 139.261 13.08 139.261 12.696Z" fill="#BEB5D8"/>
<path d="M157.516 6.26401C157.58 6.87201 157.58 7.92801 157.516 8.53601C157.26 8.58401 156.764 8.61601 156.092 8.66401C156.092 11.512 156.076 14.232 156.044 15.112C155.548 15.192 154.204 15.256 153.644 15.24C153.58 13.384 153.596 2.69601 153.644 0.840012C154.076 0.712013 155.484 0.664013 156.044 0.712013C156.076 1.60801 156.092 3.84801 156.092 6.31201C156.684 6.28001 157.164 6.28001 157.516 6.26401ZM149.436 2.18401C150.828 2.12001 152.076 2.05601 152.716 2.05601C152.748 2.61601 152.764 3.62401 152.716 4.18401C151.308 4.26401 144.268 4.66401 143.324 4.66401C143.26 4.07201 143.26 3.14401 143.324 2.53601C143.644 2.50401 145.148 2.40801 146.892 2.31201C146.876 1.84801 146.892 1.28801 146.94 0.872013C147.388 0.744013 148.844 0.680013 149.404 0.744013C149.436 1.16001 149.452 1.68801 149.436 2.18401ZM148.188 5.09601C151.532 4.93601 152.652 6.26401 152.652 9.86401C152.652 13.464 151.532 14.92 148.188 15.08C144.844 15.256 143.724 13.928 143.724 10.328C143.724 6.72801 144.844 5.27201 148.188 5.09601ZM148.188 13.112C149.868 13.032 150.364 12.312 150.364 9.97601C150.364 7.64001 149.868 6.98401 148.188 7.06401C146.508 7.16001 146.012 7.88001 146.012 10.216C146.012 12.552 146.508 13.208 148.188 13.112Z" fill="#BEB5D8"/>
<path d="M168.923 15.208C168.859 13.352 168.875 2.66401 168.923 0.808013C169.355 0.680013 170.763 0.632012 171.323 0.680013C171.387 2.87201 171.387 13.176 171.323 15.08C170.827 15.176 169.483 15.224 168.923 15.208ZM158.603 14.68C158.507 11.4 158.523 4.00801 158.603 1.80001C159.099 1.70401 160.459 1.65601 161.035 1.67201C161.083 4.05601 161.067 9.25601 161.035 12.376C162.171 12.28 166.139 12.072 167.339 12.04C167.403 12.648 167.403 13.608 167.339 14.216C166.059 14.328 160.059 14.664 158.603 14.68Z" fill="#BEB5D8"/>
<path d="M186.953 5.94401C187.017 6.55201 187.017 7.60801 186.953 8.21601C186.697 8.26401 186.201 8.29601 185.529 8.34401C185.529 11.32 185.513 14.2 185.481 15.112C184.985 15.192 183.657 15.256 183.097 15.24C183.033 13.384 183.049 2.69601 183.097 0.840012C183.529 0.712013 184.921 0.664013 185.481 0.712013C185.513 1.56001 185.529 3.65601 185.529 5.99201C186.121 5.96001 186.601 5.96001 186.953 5.94401ZM177.561 1.57601C178.361 1.48001 180.825 1.36801 181.433 1.36801C181.545 3.22401 181.577 12.392 181.481 14.248C181.065 14.344 179.705 14.408 179.129 14.376C179.129 13.192 179.145 4.77601 179.129 3.60801C178.825 3.60801 177.897 3.65601 177.561 3.68801C177.497 3.06401 177.497 2.16801 177.561 1.57601ZM172.921 1.81601C173.721 1.72001 176.345 1.60801 176.953 1.60801C177.065 3.44801 177.097 12.616 177.001 14.488C176.585 14.584 175.225 14.632 174.649 14.6C174.649 13.416 174.665 5.00001 174.649 3.83201C174.345 3.83201 173.257 3.89601 172.921 3.92801C172.857 3.30401 172.857 2.40801 172.921 1.81601Z" fill="#BEB5D8"/>
<path d="M187.656 16.456C187.608 15.656 187.624 13.4 187.656 12.664C188.168 12.568 189.704 12.488 190.152 12.536C190.136 13.496 189.976 15.336 189.832 16.344C189.352 16.44 188.136 16.472 187.656 16.456Z" fill="#BEB5D8"/>
</svg>
