<svg width="196" height="196" viewBox="0 0 196 196" fill="none" xmlns="http://www.w3.org/2000/svg">
<g filter="url(#filter0_d_177_784)">
<rect x="18" y="18" width="160" height="160" rx="20" fill="white"/>
</g>
<path d="M122 80.2307C122 100.044 104.931 105 96.4016 105C88.928 105 74 100.044 74 80.2307C74 71.6058 79.1024 66.1392 83.3888 63.385C85.3472 62.1263 87.7856 62.9298 87.9104 65.201C88.1888 70.1753 92.1488 74.1696 95.2208 70.1706C98.024 66.5108 99.4112 61.5411 99.4112 58.5547C99.4112 54.1563 104.01 51.3649 107.605 54.0588C114.603 59.3071 122 68.1038 122 80.2307Z" fill="#5639A6"/>
<path d="M56.5187 125.478L55.2427 125.918C55.1547 127.392 54.9347 128.602 54.6047 129.57C54.2527 130.56 53.8127 131.33 53.3067 131.924C52.7787 132.496 52.1847 132.914 51.5467 133.178C50.8867 133.42 50.1827 133.552 49.4787 133.552C48.6867 133.552 47.9607 133.398 47.2567 133.112C46.5527 132.804 45.9367 132.32 45.4087 131.616C44.8807 130.912 44.4627 129.966 44.1547 128.778C43.8247 127.612 43.6707 126.138 43.6707 124.356C43.6707 122.596 43.8247 121.1 44.1547 119.912C44.4627 118.746 44.8807 117.8 45.4087 117.096C45.9367 116.392 46.5527 115.908 47.2567 115.6C47.9607 115.314 48.6867 115.16 49.4787 115.16C50.1387 115.16 50.7987 115.27 51.4147 115.49C52.0307 115.71 52.5807 116.084 53.1087 116.59C53.5927 117.118 54.0327 117.8 54.3847 118.636C54.7367 119.494 54.9787 120.55 55.1327 121.804L56.5187 121.32V114.94H60.7867V133.552H56.5187V125.478ZM61.7327 133.552V114.94H66.0227V133.552H61.7327ZM47.9167 124.356C47.9167 125.5 47.9607 126.402 48.0707 127.106C48.1587 127.81 48.2687 128.36 48.4447 128.756C48.5767 129.152 48.7527 129.416 48.9507 129.548C49.1267 129.702 49.3027 129.768 49.4787 129.768C49.6547 129.768 49.8307 129.702 50.0287 129.548C50.2047 129.416 50.3587 129.152 50.5127 128.756C50.6447 128.382 50.7767 127.832 50.8867 127.106C50.9747 126.402 51.0187 125.478 51.0187 124.334C51.0187 123.212 50.9747 122.288 50.8867 121.584C50.7767 120.88 50.6447 120.33 50.5127 119.934C50.3587 119.56 50.2047 119.296 50.0287 119.142C49.8307 119.01 49.6547 118.944 49.4787 118.944C49.3027 118.944 49.1267 119.01 48.9507 119.142C48.7527 119.296 48.5767 119.56 48.4447 119.956C48.2687 120.352 48.1587 120.902 48.0707 121.606C47.9607 122.31 47.9167 123.234 47.9167 124.356ZM68.4333 127.898V115.38H72.9873V117.998H80.7533V115.38H85.3073V127.898H68.4333ZM67.3553 129.768H86.3853V133.552H67.3553V129.768ZM80.7533 124.114V121.782H72.9873V124.114H80.7533ZM88.7604 119.164V115.38H100.398V126.314H93.3144V129.548H100.838V133.332H88.7604V122.53H95.8444V119.164H88.7604ZM107.064 133.552H102.51V114.94H107.064V133.552ZM126.402 128.294V123.102L125.236 123.498V128.294H120.968V114.94H125.236V119.34L126.402 118.944V114.94H130.692V128.294H126.402ZM120.418 126.182H109V122.618H110.144V118.724H109V115.16H120.418V118.724H119.274V122.618H120.418V126.182ZM115.358 127.502V130.23H130.912V133.992H110.804V127.502H115.358ZM113.928 122.618H115.49V118.724H113.928V122.618ZM151.494 126.402V133.992H134.114V126.402H151.494ZM137.502 118.944V121.518H143.838V125.302H133.19V115.16H143.838V118.944H137.502ZM144.41 122.266V118.108L146.94 117.558V114.94H151.494V125.632H146.94V121.716L144.41 122.266ZM138.668 129.504V130.89H146.94V129.504H138.668Z" fill="#5639A6"/>
<defs>
<filter id="filter0_d_177_784" x="0" y="0" width="196" height="196" filterUnits="userSpaceOnUse" color-interpolation-filters="sRGB">
<feFlood flood-opacity="0" result="BackgroundImageFix"/>
<feColorMatrix in="SourceAlpha" type="matrix" values="0 0 0 0 0 0 0 0 0 0 0 0 0 0 0 0 0 0 127 0" result="hardAlpha"/>
<feMorphology radius="2" operator="dilate" in="SourceAlpha" result="effect1_dropShadow_177_784"/>
<feOffset/>
<feGaussianBlur stdDeviation="8"/>
<feComposite in2="hardAlpha" operator="out"/>
<feColorMatrix type="matrix" values="0 0 0 0 0.337255 0 0 0 0 0.223529 0 0 0 0 0.65098 0 0 0 0.1 0"/>
<feBlend mode="normal" in2="BackgroundImageFix" result="effect1_dropShadow_177_784"/>
<feBlend mode="normal" in="SourceGraphic" in2="effect1_dropShadow_177_784" result="shape"/>
</filter>
</defs>
</svg>
