<svg width="50" height="42" viewBox="0 0 50 42" fill="none" xmlns="http://www.w3.org/2000/svg">
<path d="M37 13.6154C37 23.5221 28.4656 26 24.2008 26C20.464 26 13 23.5221 13 13.6154C13 9.3029 15.5512 6.56959 17.6944 5.19249C18.6736 4.56316 19.8928 4.96491 19.9552 6.1005C20.0944 8.58764 22.0744 10.5848 23.6104 8.58532C25.012 6.75538 25.7056 4.27055 25.7056 2.77733C25.7056 0.578147 28.0048 -0.817535 29.8024 0.52938C33.3016 3.15354 37 7.55191 37 13.6154Z" fill="#5639A6"/>
<path d="M6.14488 34.49L5.56488 34.69C5.52488 35.36 5.42488 35.91 5.27488 36.35C5.11488 36.8 4.91488 37.15 4.68488 37.42C4.44488 37.68 4.17488 37.87 3.88488 37.99C3.58488 38.1 3.26488 38.16 2.94488 38.16C2.58488 38.16 2.25488 38.09 1.93488 37.96C1.61488 37.82 1.33488 37.6 1.09488 37.28C0.854883 36.96 0.664883 36.53 0.524883 35.99C0.374883 35.46 0.304883 34.79 0.304883 33.98C0.304883 33.18 0.374883 32.5 0.524883 31.96C0.664883 31.43 0.854883 31 1.09488 30.68C1.33488 30.36 1.61488 30.14 1.93488 30C2.25488 29.87 2.58488 29.8 2.94488 29.8C3.24488 29.8 3.54488 29.85 3.82488 29.95C4.10488 30.05 4.35488 30.22 4.59488 30.45C4.81488 30.69 5.01488 31 5.17488 31.38C5.33488 31.77 5.44488 32.25 5.51488 32.82L6.14488 32.6V29.7H8.08488V38.16H6.14488V34.49ZM8.51488 38.16V29.7H10.4649V38.16H8.51488ZM2.23488 33.98C2.23488 34.5 2.25488 34.91 2.30488 35.23C2.34488 35.55 2.39488 35.8 2.47488 35.98C2.53488 36.16 2.61488 36.28 2.70488 36.34C2.78488 36.41 2.86488 36.44 2.94488 36.44C3.02488 36.44 3.10488 36.41 3.19488 36.34C3.27488 36.28 3.34488 36.16 3.41488 35.98C3.47488 35.81 3.53488 35.56 3.58488 35.23C3.62488 34.91 3.64488 34.49 3.64488 33.97C3.64488 33.46 3.62488 33.04 3.58488 32.72C3.53488 32.4 3.47488 32.15 3.41488 31.97C3.34488 31.8 3.27488 31.68 3.19488 31.61C3.10488 31.55 3.02488 31.52 2.94488 31.52C2.86488 31.52 2.78488 31.55 2.70488 31.61C2.61488 31.68 2.53488 31.8 2.47488 31.98C2.39488 32.16 2.34488 32.41 2.30488 32.73C2.25488 33.05 2.23488 33.47 2.23488 33.98ZM11.5606 35.59V29.9H13.6306V31.09H17.1606V29.9H19.2306V35.59H11.5606ZM11.0706 36.44H19.7206V38.16H11.0706V36.44ZM17.1606 33.87V32.81H13.6306V33.87H17.1606ZM20.8002 31.62V29.9H26.0902V34.87H22.8702V36.34H26.2902V38.06H20.8002V33.15H24.0202V31.62H20.8002ZM29.1202 38.16H27.0502V29.7H29.1202V38.16ZM37.9098 35.77V33.41L37.3798 33.59V35.77H35.4398V29.7H37.3798V31.7L37.9098 31.52V29.7H39.8598V35.77H37.9098ZM35.1898 34.81H29.9998V33.19H30.5198V31.42H29.9998V29.8H35.1898V31.42H34.6698V33.19H35.1898V34.81ZM32.8898 35.41V36.65H39.9598V38.36H30.8198V35.41H32.8898ZM32.2398 33.19H32.9498V31.42H32.2398V33.19ZM49.3155 34.91V38.36H41.4155V34.91H49.3155ZM42.9555 31.52V32.69H45.8355V34.41H40.9955V29.8H45.8355V31.52H42.9555ZM46.0955 33.03V31.14L47.2455 30.89V29.7H49.3155V34.56H47.2455V32.78L46.0955 33.03ZM43.4855 36.32V36.95H47.2455V36.32H43.4855Z" fill="#5639A6"/>
</svg>
