<svg width="48" height="48" viewBox="0 0 48 48" fill="none" xmlns="http://www.w3.org/2000/svg">
<circle cx="24" cy="24" r="20" fill="#EEEBF6"/>
<path fill-rule="evenodd" clip-rule="evenodd" d="M15.5 21.568V26.432C15.5 28.726 15.5 29.872 16.222 30.585C16.877 31.232 17.896 31.291 19.818 31.297C19.8128 31.262 19.8078 31.227 19.803 31.192C19.688 30.348 19.688 29.276 19.688 27.945V27.892C19.688 27.489 20.019 27.162 20.428 27.162C20.836 27.162 21.167 27.489 21.167 27.892C21.167 29.288 21.168 30.262 21.268 30.997C21.366 31.711 21.543 32.09 21.816 32.359C22.089 32.629 22.472 32.804 23.195 32.899C23.939 32.999 24.926 33 26.341 33H27.326C28.741 33 29.727 32.998 30.472 32.9C31.195 32.804 31.578 32.628 31.85 32.359C32.123 32.089 32.301 31.711 32.398 30.997C32.498 30.263 32.5 29.288 32.5 27.892V20.108C32.5 18.711 32.498 17.738 32.398 17.002C32.301 16.289 32.123 15.91 31.851 15.642C31.578 15.372 31.195 15.196 30.471 15.1C29.727 15.002 28.741 15 27.326 15H26.341C24.926 15 23.939 15.002 23.195 15.1C22.472 15.196 22.089 15.372 21.816 15.641C21.543 15.911 21.366 16.289 21.268 17.003C21.168 17.737 21.167 18.711 21.167 20.108C21.167 20.511 20.836 20.838 20.427 20.838C20.3305 20.8387 20.2349 20.8203 20.1455 20.7839C20.0561 20.7476 19.9748 20.694 19.9062 20.6262C19.8375 20.5584 19.7829 20.4777 19.7455 20.3888C19.7081 20.2999 19.6885 20.2045 19.688 20.108V20.055C19.688 18.725 19.688 17.652 19.803 16.808L19.818 16.703C17.896 16.709 16.878 16.768 16.222 17.415C15.5 18.128 15.5 19.275 15.5 21.568ZM25.385 26.948L27.849 24.516C27.9176 24.4487 27.972 24.3684 28.0092 24.2798C28.0464 24.1912 28.0656 24.0961 28.0656 24C28.0656 23.9039 28.0464 23.8088 28.0092 23.7202C27.972 23.6316 27.9176 23.5513 27.849 23.484L25.385 21.052C25.2455 20.9151 25.0579 20.8385 24.8625 20.8385C24.6671 20.8385 24.4795 20.9151 24.34 21.052C24.2714 21.1193 24.217 21.1996 24.1798 21.2882C24.1426 21.3768 24.1234 21.4719 24.1234 21.568C24.1234 21.6641 24.1426 21.7592 24.1798 21.8478C24.217 21.9364 24.2714 22.0167 24.34 22.084L25.542 23.27H18.457C18.3604 23.2692 18.2647 23.2875 18.1752 23.3238C18.0857 23.36 18.0043 23.4136 17.9355 23.4814C17.8668 23.5493 17.8121 23.63 17.7746 23.7189C17.7371 23.8079 17.7175 23.9034 17.717 24C17.717 24.403 18.048 24.73 18.457 24.73H25.542L24.34 25.916C24.2714 25.9833 24.217 26.0636 24.1798 26.1522C24.1426 26.2408 24.1234 26.3359 24.1234 26.432C24.1234 26.5281 24.1426 26.6232 24.1798 26.7118C24.217 26.8004 24.2714 26.8807 24.34 26.948C24.4795 27.0849 24.6671 27.1615 24.8625 27.1615C25.0579 27.1615 25.2455 27.0849 25.385 26.948Z" fill="#5639A6"/>
</svg>
