<svg width="61" height="30" viewBox="0 0 61 30" fill="none" xmlns="http://www.w3.org/2000/svg">
<rect width="61" height="30" rx="15" fill="#5639A6"/>
<path d="M16.7119 11.9473C16.7051 13.9639 17.2656 16.042 18.9678 17.1289L18.0244 18.4824C16.9443 17.833 16.2676 16.7529 15.8711 15.4814C15.4268 16.8896 14.6816 18.0723 13.5537 18.7559L12.4873 17.4707C14.333 16.3291 15.0166 14.1348 15.0166 12.0293V9.88281H16.7119V11.9473ZM17.6553 14.4355V13.0137H19.2686V8.99414H20.8955V20.6836H19.2686V14.4355H17.6553ZM21.8389 21.2578V8.81641H23.5068V21.2578H21.8389ZM27.9912 9.29492V10.5527H32.9814V9.29492H34.7178V14.3809H26.2686V9.29492H27.9912ZM24.8193 16.6504V15.2832H36.167V16.6504H24.8193ZM26.1865 21.0391V17.5117H27.9365V19.6445H34.8818V21.0391H26.1865ZM27.9912 12.9863H32.9814V11.8789H27.9912V12.9863ZM47.3369 8.83008V18.0312H45.5869V8.83008H47.3369ZM37.6025 16.2539V9.75977H43.6318V11.1543H39.3525V12.3301H43.2627V13.6699H39.3525V14.8594C41.5469 14.8525 42.9346 14.8252 44.5068 14.5723L44.6846 15.9121C42.9141 16.2266 41.3281 16.2607 38.6689 16.2539H37.6025ZM38.9971 21.0391V17.2109H40.7607V19.6445H47.665V21.0391H38.9971Z" fill="white"/>
</svg>
