<svg width="17" height="16" viewBox="0 0 17 16" fill="none" xmlns="http://www.w3.org/2000/svg">
<g id="ph:heart">
<path id="Vector" d="M11.1786 3C10.0723 3 9.10375 3.50887 8.5 4.36902C7.89625 3.50887 6.92768 3 5.82143 3C4.94084 3.00106 4.09659 3.37573 3.47392 4.0418C2.85125 4.70787 2.50099 5.61095 2.5 6.55292C2.5 10.5643 8.06018 13.8112 8.29696 13.9453C8.35937 13.9812 8.42913 14 8.5 14C8.57087 14 8.64063 13.9812 8.70304 13.9453C8.93982 13.8112 14.5 10.5643 14.5 6.55292C14.499 5.61095 14.1488 4.70787 13.5261 4.0418C12.9034 3.37573 12.0592 3.00106 11.1786 3ZM8.5 13.0169C7.52179 12.4072 3.35714 9.62964 3.35714 6.55292C3.35799 5.85408 3.6179 5.18412 4.07985 4.68997C4.54181 4.19581 5.16812 3.91779 5.82143 3.91688C6.86339 3.91688 7.73821 4.51056 8.10357 5.46412C8.13586 5.54821 8.19079 5.62012 8.26138 5.67074C8.33196 5.72135 8.41502 5.74837 8.5 5.74837C8.58498 5.74837 8.66804 5.72135 8.73863 5.67074C8.80921 5.62012 8.86414 5.54821 8.89643 5.46412C9.26179 4.50885 10.1366 3.91688 11.1786 3.91688C11.8319 3.91779 12.4582 4.19581 12.9201 4.68997C13.3821 5.18412 13.642 5.85408 13.6429 6.55292C13.6429 9.62505 9.47714 12.4066 8.5 13.0169Z" fill="#ABABAB"/>
</g>
</svg>
