<svg width="40" height="40" viewBox="0 0 40 40" fill="none" xmlns="http://www.w3.org/2000/svg">
<g filter="url(#filter0_d_154_580)">
<circle cx="20" cy="20" r="16" fill="white"/>
</g>
<g clip-path="url(#clip0_154_580)">
<path d="M20 18.6538C20.6611 18.6538 21.2264 18.8908 21.6958 19.3648C22.1653 19.8387 22.4 20.4095 22.4 21.0769C22.4 21.7444 22.1653 22.3151 21.6958 22.7891C21.2264 23.263 20.6611 23.5 20 23.5C19.3389 23.5 18.7736 23.263 18.3042 22.7891C17.8347 22.3151 17.6 21.7444 17.6 21.0769C17.6 20.4095 17.8347 19.8387 18.3042 19.3648C18.7736 18.8908 19.3389 18.6538 20 18.6538ZM25.8667 15.1538C26.4556 15.1538 26.9583 15.3642 27.375 15.7849C27.7917 16.2055 28 16.7131 28 17.3077V24.8462C28 25.4407 27.7917 25.9483 27.375 26.369C26.9583 26.7897 26.4556 27 25.8667 27H14.1333C13.5444 27 13.0417 26.7897 12.625 26.369C12.2083 25.9483 12 25.4407 12 24.8462V17.3077C12 16.7131 12.2083 16.2055 12.625 15.7849C13.0417 15.3642 13.5444 15.1538 14.1333 15.1538H16L16.425 14.0096C16.5306 13.7348 16.7236 13.4978 17.0042 13.2987C17.2847 13.0996 17.5722 13 17.8667 13H22.1333C22.4278 13 22.7153 13.0996 22.9958 13.2987C23.2764 13.4978 23.4694 13.7348 23.575 14.0096L24 15.1538H25.8667ZM20 24.8462C21.0278 24.8462 21.9069 24.4774 22.6375 23.7398C23.3681 23.0022 23.7333 22.1146 23.7333 21.0769C23.7333 20.0393 23.3681 19.1516 22.6375 18.4141C21.9069 17.6765 21.0278 17.3077 20 17.3077C18.9722 17.3077 18.0931 17.6765 17.3625 18.4141C16.6319 19.1516 16.2667 20.0393 16.2667 21.0769C16.2667 22.1146 16.6319 23.0022 17.3625 23.7398C18.0931 24.4774 18.9722 24.8462 20 24.8462Z" fill="#ABABAB"/>
</g>
<defs>
<filter id="filter0_d_154_580" x="0" y="0" width="40" height="40" filterUnits="userSpaceOnUse" color-interpolation-filters="sRGB">
<feFlood flood-opacity="0" result="BackgroundImageFix"/>
<feColorMatrix in="SourceAlpha" type="matrix" values="0 0 0 0 0 0 0 0 0 0 0 0 0 0 0 0 0 0 127 0" result="hardAlpha"/>
<feOffset/>
<feGaussianBlur stdDeviation="2"/>
<feComposite in2="hardAlpha" operator="out"/>
<feColorMatrix type="matrix" values="0 0 0 0 0 0 0 0 0 0 0 0 0 0 0 0 0 0 0.1 0"/>
<feBlend mode="normal" in2="BackgroundImageFix" result="effect1_dropShadow_154_580"/>
<feBlend mode="normal" in="SourceGraphic" in2="effect1_dropShadow_154_580" result="shape"/>
</filter>
<clipPath id="clip0_154_580">
<rect width="16" height="14" fill="white" transform="translate(12 13)"/>
</clipPath>
</defs>
</svg>
