<svg width="327" height="48" viewBox="0 0 327 48" fill="none" xmlns="http://www.w3.org/2000/svg">
<rect width="327" height="48" rx="8" fill="#5639A6"/>
<path d="M147.312 17.2656V31.4062H145.578V23.6875H142.859V22.2656H145.578V17.2656H147.312ZM135.281 27.3438C137.539 26.2734 138.875 23.6016 138.891 21.0156V20.0781H135.859V18.6562H143.688V20.0781H140.656V21.0156C140.656 23.4609 141.977 26.0391 144.25 27.0312L143.219 28.4219C141.578 27.6406 140.406 26.0703 139.789 24.2031C139.172 26.1953 137.969 27.875 136.328 28.7031L135.281 27.3438ZM154.359 19.8125C154.359 21.5391 155.477 23.1641 157.688 23.8438L156.859 25.2031C155.273 24.7031 154.148 23.6953 153.531 22.4219C152.906 23.9062 151.719 25.0859 150.016 25.6562L149.141 24.2812C151.414 23.5391 152.609 21.7031 152.609 19.8281V19.6562H149.625V18.25H157.297V19.6562H154.359V19.8125ZM151.062 28.6719C151.062 26.9844 152.891 26 155.844 26C158.773 26 160.57 26.9844 160.578 28.6719C160.57 30.375 158.773 31.375 155.844 31.375C152.891 31.375 151.062 30.375 151.062 28.6719ZM152.797 28.6719C152.797 29.5469 153.906 30.0078 155.844 30.0156C157.773 30.0078 158.859 29.5469 158.859 28.6719C158.859 27.8125 157.773 27.3594 155.844 27.3594C153.906 27.3594 152.797 27.8125 152.797 28.6719ZM158.703 25.6875V17.2656H160.438V20.6562H162.406V22.0781H160.438V25.6875H158.703ZM174.188 17.2656V22.8906H176.359V24.3281H174.188V31.3906H172.469V17.2656H174.188ZM163.047 20.8281V19.4375H166.391V17.4688H168.125V19.4375H171.375V20.8281H163.047ZM163.703 25.0781C163.688 23.125 165.203 21.7422 167.266 21.75C169.297 21.7422 170.805 23.125 170.812 25.0781C170.805 27.0234 169.297 28.3906 167.266 28.3906C165.203 28.3906 163.688 27.0234 163.703 25.0781ZM165.359 25.0781C165.352 26.2266 166.156 26.9609 167.266 26.9531C168.352 26.9609 169.141 26.2266 169.156 25.0781C169.141 23.9297 168.352 23.1719 167.266 23.1719C166.156 23.1719 165.352 23.9297 165.359 25.0781ZM188.75 17.2656V31.3906H187V17.2656H188.75ZM177.047 27.5C180.75 25.7422 182.453 23.3516 182.766 20.1406H177.766V18.7656H184.531C184.531 22.9688 182.898 26.5391 177.953 28.8906L177.047 27.5Z" fill="white"/>
</svg>
