<svg width="345" height="42" viewBox="0 0 345 42" fill="none" xmlns="http://www.w3.org/2000/svg">
<g filter="url(#filter0_b_183_1484)">
<rect x="1" y="1" width="343" height="40" rx="8" fill="#EEEBF6"/>
<rect x="0.5" y="0.5" width="344" height="41" rx="8.5" stroke="#5639A6"/>
</g>
<path d="M112.705 14.8574V27.2168H111.188V14.8574H112.705ZM102.465 23.7852C103.449 23.7783 104.563 23.7783 105.732 23.7441V22.6094C104.345 22.3906 103.436 21.543 103.436 20.3672C103.436 18.9727 104.673 18.0498 106.471 18.043C108.289 18.0498 109.547 18.9727 109.547 20.3672C109.547 21.5361 108.638 22.377 107.25 22.6025V23.6895C108.337 23.6416 109.431 23.5527 110.463 23.416L110.572 24.5508C107.858 25.0088 104.905 25.043 102.684 25.043L102.465 23.7852ZM102.725 17.4824V16.2793H105.732V14.8984H107.25V16.2793H110.244V17.4824H102.725ZM104.885 20.3672C104.871 21.0781 105.534 21.4951 106.471 21.4883C107.435 21.4951 108.091 21.0781 108.084 20.3672C108.091 19.6494 107.435 19.2119 106.471 19.2051C105.534 19.2119 104.871 19.6494 104.885 20.3672ZM124.873 14.8711V24.2227H123.342V23.1426H120.922V22.0762H123.342V14.8711H124.873ZM114.455 20.4219C116.731 20.4082 119.801 20.3877 122.426 20.0527L122.508 21.1465C121.489 21.3174 120.437 21.4268 119.391 21.502V23.8809H117.873V21.584C116.718 21.6318 115.617 21.6387 114.646 21.6387L114.455 20.4219ZM115.398 17.5098C115.398 16.2041 116.656 15.3154 118.488 15.3223C120.286 15.3154 121.551 16.2041 121.564 17.5098C121.551 18.8359 120.286 19.6768 118.488 19.6836C116.656 19.6768 115.398 18.8359 115.398 17.5098ZM116.096 26.9707V23.3203H117.613V25.7402H125.16V26.9707H116.096ZM116.834 17.5098C116.834 18.1797 117.497 18.5693 118.488 18.5762C119.432 18.5693 120.108 18.1797 120.115 17.5098C120.108 16.8398 119.432 16.4365 118.488 16.4434C117.497 16.4365 116.834 16.8398 116.834 17.5098ZM136.289 14.8574V19.6836H138.121V20.9551H136.289V27.1895H134.771V14.8574H136.289ZM126.541 23.8125C129.549 22.3086 131.176 20.2168 131.477 17.4004H127.211V16.1426H133.021C133.015 19.7725 131.511 22.9648 127.402 24.9883L126.541 23.8125ZM149.004 14.8574V21.4883H147.473V14.8574H149.004ZM138.928 18.3027C138.928 16.5869 140.35 15.3975 142.264 15.4043C144.171 15.3975 145.593 16.5869 145.586 18.3027C145.593 19.9912 144.171 21.1807 142.264 21.1738C140.35 21.1807 138.928 19.9912 138.928 18.3027ZM140.418 18.3027C140.411 19.2939 141.184 19.9229 142.264 19.9297C143.323 19.9229 144.096 19.2939 144.096 18.3027C144.096 17.3115 143.323 16.6689 142.264 16.6758C141.184 16.6689 140.411 17.3115 140.418 18.3027ZM140.828 27.0664V22.0625H142.332V23.334H147.486V22.0625H149.004V27.0664H140.828ZM142.332 25.8359H147.486V24.5234H142.332V25.8359ZM161.09 14.8574V27.2305H159.559V14.8574H161.09ZM151.205 20.1211C151.198 17.4551 152.559 15.7598 154.432 15.7598C156.284 15.7598 157.651 17.4551 157.658 20.1211C157.651 22.8076 156.284 24.4961 154.432 24.4961C152.559 24.4961 151.198 22.8076 151.205 20.1211ZM152.668 20.1211C152.668 22.0215 153.386 23.1221 154.432 23.1289C155.471 23.1221 156.182 22.0215 156.182 20.1211C156.182 18.2344 155.471 17.127 154.432 17.127C153.386 17.127 152.668 18.2344 152.668 20.1211ZM169.963 15.3906C171.768 15.3906 173.053 16.3955 173.066 17.8789C173.053 19.1094 172.13 20.0322 170.756 20.2852V21.2832C171.788 21.2217 172.82 21.1328 173.777 20.9961L173.9 22.1035C171.33 22.5615 168.459 22.6162 166.367 22.6094L166.203 21.3926C167.092 21.3926 168.131 21.3857 169.225 21.3516V20.292C167.81 20.0527 166.866 19.1299 166.873 17.8789C166.866 16.3955 168.151 15.3906 169.963 15.3906ZM167.898 26.957V23.4707H169.416V25.7266H176.457V26.957H167.898ZM168.295 17.8789C168.281 18.6924 168.979 19.1982 169.963 19.2051C170.954 19.1982 171.624 18.6924 171.631 17.8789C171.624 17.0449 170.954 16.5527 169.963 16.5527C168.979 16.5527 168.281 17.0449 168.295 17.8789ZM174.502 24.3047V14.8711H176.02V18.8633H177.688V20.1211H176.02V24.3047H174.502ZM189.623 24.5234V25.7812H178.33V24.5234H181.324V22.4863H179.67V18.4531H186.779V16.9355H179.643V15.7051H188.283V19.6699H181.188V21.2559H188.57V22.4863H186.766V24.5234H189.623ZM182.801 24.5234H185.275V22.4863H182.801V24.5234ZM197.785 19.9844V21.2148H195.283V23.3682C196.363 23.3271 197.443 23.252 198.469 23.1426L198.592 24.2637C195.871 24.667 193.007 24.6943 190.676 24.7012L190.484 23.4434C191.503 23.4502 192.617 23.4434 193.766 23.4229V21.2148H191.346V15.9922H197.73V17.1953H192.85V19.9844H197.785ZM199.207 27.2305V14.8574H200.725V27.2305H199.207ZM207.055 22.8691C207.041 23.915 207.513 24.9951 208.579 25.6924C209.652 24.9473 210.131 23.8057 210.145 22.8691V22.2949H211.635V22.8691C211.628 24.1611 212.387 25.3984 214.041 25.918L213.275 27.0527C212.072 26.6289 211.286 25.8359 210.862 24.8379C210.452 25.8154 209.721 26.6904 208.586 27.1484C207.438 26.7178 206.699 25.8838 206.303 24.8926C205.858 25.8428 205.079 26.6289 203.938 27.0527L203.199 25.918C204.799 25.3711 205.571 24.0928 205.578 22.8691V22.2949H207.055V22.8691ZM202.693 18.4531C202.693 16.7441 204.088 15.5137 205.961 15.5137C207.54 15.5137 208.812 16.4434 209.126 17.8105H211.361V14.8574H212.879V21.8301H211.361V19.041H209.14C208.853 20.4492 207.567 21.3994 205.961 21.3926C204.088 21.3994 202.693 20.1758 202.693 18.4531ZM204.156 18.4531C204.149 19.458 204.915 20.1279 205.961 20.1348C206.979 20.1279 207.738 19.458 207.738 18.4531C207.738 17.4346 206.979 16.7852 205.961 16.7852C204.915 16.7852 204.149 17.4346 204.156 18.4531ZM218.006 15.7598C219.674 15.7598 220.911 17.1543 221.13 19.4102H223.488V14.8574H224.992V27.2305H223.488V20.6406H221.144C220.979 23.0264 219.722 24.4961 218.006 24.4961C216.146 24.4961 214.827 22.8076 214.834 20.1211C214.827 17.4551 216.146 15.7598 218.006 15.7598ZM216.297 20.1211C216.29 22.0215 216.987 23.1221 218.006 23.1289C219.031 23.1221 219.722 22.0215 219.729 20.1211C219.722 18.2344 219.031 17.127 218.006 17.127C216.987 17.127 216.29 18.2344 216.297 20.1211ZM238.021 24.4688V25.7129H226.729V24.4688H229.34V21.3447C228.355 20.7773 227.761 19.8887 227.768 18.7949C227.761 16.8262 229.688 15.5273 232.348 15.5273C235.021 15.5273 236.962 16.8262 236.955 18.7949C236.962 19.875 236.381 20.7432 235.424 21.3105V24.4688H238.021ZM229.258 18.7949C229.251 20.0596 230.502 20.8662 232.348 20.8594C234.187 20.8662 235.465 20.0596 235.465 18.7949C235.465 17.5098 234.187 16.7236 232.348 16.7305C230.502 16.7236 229.251 17.5098 229.258 18.7949ZM230.844 24.4688H233.879V21.8916C233.407 21.9941 232.895 22.0488 232.348 22.0488C231.814 22.0488 231.309 21.9941 230.844 21.8984V24.4688ZM240.332 26.1094C239.744 26.1094 239.259 25.6309 239.266 25.043C239.259 24.4688 239.744 23.9971 240.332 23.9902C240.899 23.9971 241.385 24.4688 241.385 25.043C241.385 25.6309 240.899 26.1094 240.332 26.1094Z" fill="#5639A6"/>
<defs>
<filter id="filter0_b_183_1484" x="-4" y="-4" width="353" height="50" filterUnits="userSpaceOnUse" color-interpolation-filters="sRGB">
<feFlood flood-opacity="0" result="BackgroundImageFix"/>
<feGaussianBlur in="BackgroundImageFix" stdDeviation="2"/>
<feComposite in2="SourceAlpha" operator="in" result="effect1_backgroundBlur_183_1484"/>
<feBlend mode="normal" in="SourceGraphic" in2="effect1_backgroundBlur_183_1484" result="shape"/>
</filter>
</defs>
</svg>
