<svg width="392" height="392" viewBox="0 0 392 392" fill="none" xmlns="http://www.w3.org/2000/svg">
<g filter="url(#filter0_d_444_96)">
<rect x="36" y="36" width="320" height="320" rx="40" fill="white"/>
</g>
<path d="M244 160.461C244 200.089 209.862 210 192.803 210C177.856 210 148 200.089 148 160.461C148 143.212 158.205 132.278 166.778 126.77C170.694 124.253 175.571 125.86 175.821 130.402C176.378 140.351 184.298 148.339 190.442 140.341C196.048 133.022 198.822 123.082 198.822 117.109C198.822 108.313 208.019 102.73 215.21 108.118C229.206 118.614 244 136.208 244 160.461Z" fill="#5639A6"/>
<path d="M113.037 251.956L110.485 252.836C110.309 255.784 109.869 258.204 109.209 260.14C108.505 262.12 107.625 263.66 106.613 264.848C105.557 265.992 104.369 266.828 103.093 267.356C101.773 267.84 100.365 268.104 98.9575 268.104C97.3735 268.104 95.9215 267.796 94.5135 267.224C93.1055 266.608 91.8735 265.64 90.8175 264.232C89.7615 262.824 88.9255 260.932 88.3095 258.556C87.6495 256.224 87.3415 253.276 87.3415 249.712C87.3415 246.192 87.6495 243.2 88.3095 240.824C88.9255 238.492 89.7615 236.6 90.8175 235.192C91.8735 233.784 93.1055 232.816 94.5135 232.2C95.9215 231.628 97.3735 231.32 98.9575 231.32C100.277 231.32 101.597 231.54 102.829 231.98C104.061 232.42 105.161 233.168 106.217 234.18C107.185 235.236 108.065 236.6 108.769 238.272C109.473 239.988 109.957 242.1 110.265 244.608L113.037 243.64V230.88H121.573V268.104H113.037V251.956ZM123.465 268.104V230.88H132.045V268.104H123.465ZM95.8335 249.712C95.8335 252 95.9215 253.804 96.1415 255.212C96.3175 256.62 96.5375 257.72 96.8895 258.512C97.1535 259.304 97.5055 259.832 97.9015 260.096C98.2535 260.404 98.6055 260.536 98.9575 260.536C99.3095 260.536 99.6615 260.404 100.057 260.096C100.409 259.832 100.717 259.304 101.025 258.512C101.289 257.764 101.553 256.664 101.773 255.212C101.949 253.804 102.037 251.956 102.037 249.668C102.037 247.424 101.949 245.576 101.773 244.168C101.553 242.76 101.289 241.66 101.025 240.868C100.717 240.12 100.409 239.592 100.057 239.284C99.6615 239.02 99.3095 238.888 98.9575 238.888C98.6055 238.888 98.2535 239.02 97.9015 239.284C97.5055 239.592 97.1535 240.12 96.8895 240.912C96.5375 241.704 96.3175 242.804 96.1415 244.212C95.9215 245.62 95.8335 247.468 95.8335 249.712ZM136.867 256.796V231.76H145.975V236.996H161.507V231.76H170.615V256.796H136.867ZM134.711 260.536H172.771V268.104H134.711V260.536ZM161.507 249.228V244.564H145.975V249.228H161.507ZM177.521 239.328V231.76H200.797V253.628H186.629V260.096H201.677V267.664H177.521V246.06H191.689V239.328H177.521ZM214.129 268.104H205.021V230.88H214.129V268.104ZM252.803 257.588V247.204L250.471 247.996V257.588H241.935V230.88H250.471V239.68L252.803 238.888V230.88H261.383V257.588H252.803ZM240.835 253.364H217.999V246.236H220.287V238.448H217.999V231.32H240.835V238.448H238.547V246.236H240.835V253.364ZM230.715 256.004V261.46H261.823V268.984H221.607V256.004H230.715ZM227.855 246.236H230.979V238.448H227.855V246.236ZM302.988 253.804V268.984H268.228V253.804H302.988ZM275.004 238.888V244.036H287.676V251.604H266.38V231.32H287.676V238.888H275.004ZM288.82 245.532V237.216L293.88 236.116V230.88H302.988V252.264H293.88V244.432L288.82 245.532ZM277.336 260.008V262.78H293.88V260.008H277.336Z" fill="#5639A6"/>
<defs>
<filter id="filter0_d_444_96" x="0" y="0" width="392" height="392" filterUnits="userSpaceOnUse" color-interpolation-filters="sRGB">
<feFlood flood-opacity="0" result="BackgroundImageFix"/>
<feColorMatrix in="SourceAlpha" type="matrix" values="0 0 0 0 0 0 0 0 0 0 0 0 0 0 0 0 0 0 127 0" result="hardAlpha"/>
<feMorphology radius="4" operator="dilate" in="SourceAlpha" result="effect1_dropShadow_444_96"/>
<feOffset/>
<feGaussianBlur stdDeviation="16"/>
<feComposite in2="hardAlpha" operator="out"/>
<feColorMatrix type="matrix" values="0 0 0 0 0.337255 0 0 0 0 0.223529 0 0 0 0 0.65098 0 0 0 0.1 0"/>
<feBlend mode="normal" in2="BackgroundImageFix" result="effect1_dropShadow_444_96"/>
<feBlend mode="normal" in="SourceGraphic" in2="effect1_dropShadow_444_96" result="shape"/>
</filter>
</defs>
</svg>
